<?xml version="1.0" encoding="UTF-8"?>
<svg id="b_mask" xmlns="http://www.w3.org/2000/svg" width="81.28mm" height="128.5mm" viewBox="0 0 230.4 364.25">
  <defs>
    <style>
      .cls-1 {
        fill: #231f20;
      }

      .cls-2 {
        fill: #223971;
        stroke: #231f20;
        stroke-miterlimit: 10;
        stroke-width: 2px;
      }
    </style>
  </defs>
  <g id="screwhole_pad_BL">
    <path class="cls-1" d="M26.05,4.3c1.36,0,2.47,1.1,2.47,2.47v3.76c0,1.36-1.1,2.47-2.47,2.47h-11.97c-1.36,0-2.47-1.1-2.47-2.47v-3.76c0-1.36,1.1-2.47,2.47-2.47h11.97M26.05,2.3h-11.97c-2.46,0-4.47,2-4.47,4.47v3.76c0,2.46,2,4.47,4.47,4.47h11.97c2.46,0,4.47-2,4.47-4.47v-3.76c0-2.46-2-4.47-4.47-4.47h0Z"/>
  </g>
  <g id="screwhole_pad_BL-2" data-name="screwhole_pad_BL">
    <path class="cls-1" d="M216.31,4.3c1.36,0,2.47,1.1,2.47,2.47v3.76c0,1.36-1.1,2.47-2.47,2.47h-11.97c-1.36,0-2.47-1.1-2.47-2.47v-3.76c0-1.36,1.1-2.47,2.47-2.47h11.97M216.31,2.3h-11.97c-2.46,0-4.47,2-4.47,4.47v3.76c0,2.46,2,4.47,4.47,4.47h11.97c2.46,0,4.47-2,4.47-4.47v-3.76c0-2.46-2-4.47-4.47-4.47h0Z"/>
  </g>
  <g id="screwhole_pad_BL-3" data-name="screwhole_pad_BL">
    <path class="cls-1" d="M26.05,351.26c1.36,0,2.47,1.1,2.47,2.47v3.76c0,1.36-1.1,2.47-2.47,2.47h-11.97c-1.36,0-2.47-1.1-2.47-2.47v-3.76c0-1.36,1.1-2.47,2.47-2.47h11.97M26.05,349.26h-11.97c-2.46,0-4.47,2-4.47,4.47v3.76c0,2.46,2,4.47,4.47,4.47h11.97c2.46,0,4.47-2,4.47-4.47v-3.76c0-2.46-2-4.47-4.47-4.47h0Z"/>
  </g>
  <g id="screwhole_pad_BL-4" data-name="screwhole_pad_BL">
    <path class="cls-1" d="M216.32,351.26c1.36,0,2.47,1.1,2.47,2.47v3.76c0,1.36-1.1,2.47-2.47,2.47h-11.97c-1.36,0-2.47-1.1-2.47-2.47v-3.76c0-1.36,1.1-2.47,2.47-2.47h11.97M216.32,349.26h-11.97c-2.46,0-4.47,2-4.47,4.47v3.76c0,2.46,2,4.47,4.47,4.47h11.97c2.46,0,4.47-2,4.47-4.47v-3.76c0-2.46-2-4.47-4.47-4.47h0Z"/>
  </g>
  <circle class="cls-2" cx="115.22" cy="141.71" r="17.62" transform="translate(-.17 .14) rotate(-.07)"/>
</svg>