<?xml version="1.0" encoding="UTF-8"?>
<svg id="f_mask" data-name="f mask" xmlns="http://www.w3.org/2000/svg" width="81.28mm" height="128.5mm" viewBox="0 0 230.4 364.25">
  <defs>
    <style>
      .cls-1 {
        fill: #231f20;
      }

      .cls-2 {
        fill: #223971;
        stroke: #231f20;
        stroke-miterlimit: 10;
        stroke-width: 2px;
      }
    </style>
  </defs>
  <g id="screwhole_pad_BL">
    <path class="cls-1" d="M26.05,4.3c1.36,0,2.47,1.1,2.47,2.47v3.76c0,1.36-1.1,2.47-2.47,2.47h-11.97c-1.36,0-2.47-1.1-2.47-2.47v-3.76c0-1.36,1.1-2.47,2.47-2.47h11.97M26.05,2.3h-11.97c-2.46,0-4.47,2-4.47,4.47v3.76c0,2.46,2,4.47,4.47,4.47h11.97c2.46,0,4.47-2,4.47-4.47v-3.76c0-2.46-2-4.47-4.47-4.47h0Z"/>
  </g>
  <g id="screwhole_pad_BL-2" data-name="screwhole_pad_BL">
    <path class="cls-1" d="M216.31,4.3c1.36,0,2.47,1.1,2.47,2.47v3.76c0,1.36-1.1,2.47-2.47,2.47h-11.97c-1.36,0-2.47-1.1-2.47-2.47v-3.76c0-1.36,1.1-2.47,2.47-2.47h11.97M216.31,2.3h-11.97c-2.46,0-4.47,2-4.47,4.47v3.76c0,2.46,2,4.47,4.47,4.47h11.97c2.46,0,4.47-2,4.47-4.47v-3.76c0-2.46-2-4.47-4.47-4.47h0Z"/>
  </g>
  <g id="screwhole_pad_BL-3" data-name="screwhole_pad_BL">
    <path class="cls-1" d="M26.05,351.26c1.36,0,2.47,1.1,2.47,2.47v3.76c0,1.36-1.1,2.47-2.47,2.47h-11.97c-1.36,0-2.47-1.1-2.47-2.47v-3.76c0-1.36,1.1-2.47,2.47-2.47h11.97M26.05,349.26h-11.97c-2.46,0-4.47,2-4.47,4.47v3.76c0,2.46,2,4.47,4.47,4.47h11.97c2.46,0,4.47-2,4.47-4.47v-3.76c0-2.46-2-4.47-4.47-4.47h0Z"/>
  </g>
  <circle class="cls-2" cx="115.22" cy="141.71" r="17.62" transform="translate(-.17 .14) rotate(-.07)"/>
  <g id="screwhole_pad_BL-4" data-name="screwhole_pad_BL">
    <path class="cls-1" d="M216.32,351.26c1.36,0,2.47,1.1,2.47,2.47v3.76c0,1.36-1.1,2.47-2.47,2.47h-11.97c-1.36,0-2.47-1.1-2.47-2.47v-3.76c0-1.36,1.1-2.47,2.47-2.47h11.97M216.32,349.26h-11.97c-2.46,0-4.47,2-4.47,4.47v3.76c0,2.46,2,4.47,4.47,4.47h11.97c2.46,0,4.47-2,4.47-4.47v-3.76c0-2.46-2-4.47-4.47-4.47h0Z"/>
  </g>
  <circle class="cls-2" cx="115.22" cy="141.71" r="17.62" transform="translate(-.17 .14) rotate(-.07)"/>
  <circle class="cls-1" cx="221.42" cy="218.16" r="4.25"/>
  <g>
    <polygon class="cls-1" points="19.61 119.33 20.72 119.33 20.17 117.99 19.61 119.33"/>
    <path class="cls-1" d="M37.98,116.54H15.2c-1.04,0-1.88.84-1.88,1.88v1.14c0,1.04.84,1.88,1.88,1.88h22.78c1.04,0,1.88-.84,1.88-1.88v-1.14c0-1.04-.84-1.88-1.88-1.88ZM15.5,119.4c.05.14.13.26.23.36.1.1.22.18.36.23s.29.08.46.08.32-.03.47-.08c.06-.02.11-.07.16-.1v-1h.74v1.42c-.19.14-.41.25-.66.33-.25.08-.5.11-.75.11-.28,0-.53-.04-.76-.13-.23-.09-.43-.21-.61-.38s-.3-.35-.4-.58c-.1-.22-.14-.46-.14-.72s.05-.5.14-.72c.09-.22.23-.41.4-.58.17-.16.38-.29.61-.38.23-.09.49-.13.77-.13.31,0,.59.05.84.15.25.1.46.25.63.45l-.52.48c-.13-.13-.27-.23-.42-.3-.15-.07-.31-.1-.49-.1s-.33.03-.46.08c-.14.05-.26.13-.36.23-.1.1-.18.22-.23.35s-.08.29-.08.46.03.31.08.45ZM21.29,120.7l-.31-.75h-1.62l-.31.75h-.83l1.56-3.5h.8l1.56,3.5h-.85ZM24.98,117.86h-1.12v2.84h-.81v-2.84h-1.12v-.66h3.05v.66ZM28.13,120.7h-2.71v-3.5h2.64v.65h-1.84v.76h1.62v.63h-1.62v.81h1.91v.65ZM31.34,120.7h-2.57v-3.5h.81v2.84h1.76v.66ZM34.5,120.7h-2.71v-3.5h2.64v.65h-1.84v.76h1.62v.63h-1.62v.81h1.91v.65ZM38.36,120.7h-.67l-1.75-2.12v2.12h-.8v-3.5h.67l1.74,2.12v-2.12h.8v3.5Z"/>
  </g>
  <g>
    <path class="cls-1" d="M191.99,198.45h.66c.25,0,.44-.05.56-.16.12-.11.18-.26.18-.45s-.06-.34-.18-.45c-.12-.11-.31-.16-.56-.16h-.66v1.22Z"/>
    <path class="cls-1" d="M189.1,198.6h-.95v.86h.95c.21,0,.37-.03.48-.1s.16-.18.16-.33-.05-.26-.16-.33c-.11-.07-.27-.11-.48-.11Z"/>
    <path class="cls-1" d="M219.89,195.91h-32.15c-1.04,0-1.88.84-1.88,1.88v1.14c0,1.04.84,1.88,1.88,1.88h32.15c1.04,0,1.88-.84,1.88-1.88v-1.14c0-1.04-.84-1.88-1.88-1.88ZM190.21,199.82c-.24.17-.58.25-1.04.25h-1.81v-3.5h1.71c.44,0,.77.08.99.25s.33.39.33.66c0,.18-.04.34-.13.48-.09.13-.21.23-.36.3.04.01.09,0,.13.02.17.07.3.18.4.32.09.14.14.31.14.51,0,.3-.12.53-.36.7ZM193.4,200.07l-.67-.98s-.02,0-.04,0h-.71v.97h-.81v-3.5h1.51c.31,0,.58.05.81.15s.4.25.52.44c.12.19.19.42.19.68s-.06.48-.19.67c-.12.19-.3.33-.52.43,0,0,0,0,0,0l.78,1.12h-.88ZM195.66,200.07h-.81v-3.5h.81v3.5ZM197.18,198.77c.05.14.13.26.23.36.1.1.22.18.36.23s.29.08.46.08.32-.03.47-.08c.06-.02.11-.07.16-.1v-1h.74v1.42c-.19.14-.41.25-.66.33-.25.08-.5.11-.75.11-.28,0-.53-.04-.76-.13-.23-.09-.43-.21-.61-.38s-.3-.35-.4-.58c-.1-.22-.14-.46-.14-.72s.05-.5.14-.72c.09-.22.23-.41.4-.58.17-.16.38-.29.61-.38.23-.09.49-.13.77-.13.31,0,.59.05.84.15.25.1.46.25.63.45l-.52.48c-.13-.13-.27-.23-.42-.3-.15-.07-.31-.1-.49-.1s-.33.03-.46.08c-.14.05-.26.13-.36.23-.1.1-.18.22-.23.35s-.08.29-.08.46.03.31.08.45ZM203.56,200.07h-.81v-1.43h-1.59v1.43h-.81v-3.5h.81v1.38h1.59v-1.38h.81v3.5ZM207.05,197.23h-1.12v2.84h-.81v-2.84h-1.12v-.66h3.05v.66ZM210.69,200.07h-.67l-1.75-2.12v2.12h-.8v-3.5h.67l1.74,2.12v-2.12h.8v3.5ZM214.23,200.07h-2.71v-3.5h2.64v.65h-1.84v.76h1.62v.63h-1.62v.81h1.91v.65ZM217.34,199.59c-.11.16-.27.29-.49.4-.22.1-.49.15-.83.15-.28,0-.55-.04-.81-.11s-.46-.17-.62-.29l.28-.61c.15.11.33.19.53.26s.41.1.62.1c.16,0,.29-.02.39-.05.1-.03.17-.08.22-.13s.07-.12.07-.2c0-.09-.04-.17-.11-.22s-.17-.1-.29-.13-.25-.07-.4-.1c-.14-.03-.29-.07-.43-.12-.15-.05-.28-.11-.4-.18s-.22-.17-.29-.29-.11-.27-.11-.46c0-.2.05-.38.16-.55s.27-.3.49-.39c.22-.1.49-.15.82-.15.22,0,.44.03.65.08s.4.13.57.23l-.25.62c-.16-.09-.33-.16-.49-.21s-.32-.07-.48-.07-.29.02-.38.05c-.1.04-.17.08-.21.14-.04.06-.07.13-.07.2,0,.09.04.16.11.22.07.06.17.1.29.13s.25.07.4.1c.14.03.29.07.43.11.15.04.28.1.4.18.12.07.22.17.29.29.08.12.11.27.11.46,0,.2-.05.38-.17.54ZM220.53,199.59c-.11.16-.27.29-.49.4-.22.1-.49.15-.83.15-.28,0-.55-.04-.81-.11s-.46-.17-.62-.29l.28-.61c.15.11.33.19.53.26s.41.1.62.1c.16,0,.29-.02.39-.05.1-.03.17-.08.22-.13s.07-.12.07-.2c0-.09-.04-.17-.11-.22s-.17-.1-.29-.13-.25-.07-.4-.1c-.14-.03-.29-.07-.43-.12-.15-.05-.28-.11-.4-.18s-.22-.17-.29-.29-.11-.27-.11-.46c0-.2.05-.38.16-.55s.27-.3.49-.39c.22-.1.49-.15.82-.15.22,0,.44.03.65.08s.4.13.57.23l-.25.62c-.16-.09-.33-.16-.49-.21s-.32-.07-.48-.07-.29.02-.38.05c-.1.04-.17.08-.21.14-.04.06-.07.13-.07.2,0,.09.04.16.11.22.07.06.17.1.29.13s.25.07.4.1c.14.03.29.07.43.11.15.04.28.1.4.18.12.07.22.17.29.29.08.12.11.27.11.46,0,.2-.05.38-.17.54Z"/>
    <path class="cls-1" d="M188.97,198.01c.2,0,.35-.03.45-.1.1-.07.16-.17.16-.31s-.05-.24-.16-.31c-.11-.07-.26-.1-.45-.1h-.81v.82h.81Z"/>
  </g>
  <g>
    <path class="cls-1" d="M171.69,195.91h-31.24c-1.04,0-1.88.84-1.88,1.88v1.14c0,1.04.84,1.88,1.88,1.88h31.24c1.04,0,1.88-.84,1.88-1.88v-1.14c0-1.04-.84-1.88-1.88-1.88ZM142.55,199.59c-.11.16-.27.29-.49.4-.22.1-.49.15-.83.15-.28,0-.55-.04-.81-.11s-.46-.17-.62-.29l.28-.61c.15.11.33.19.53.26s.41.1.62.1c.16,0,.29-.02.39-.05.1-.03.17-.08.22-.13s.07-.12.07-.2c0-.09-.04-.17-.11-.22s-.17-.1-.29-.13-.25-.07-.4-.1c-.14-.03-.29-.07-.43-.12-.15-.05-.28-.11-.4-.18s-.22-.17-.29-.29-.11-.27-.11-.46c0-.2.05-.38.16-.55s.27-.3.49-.39c.22-.1.49-.15.82-.15.22,0,.44.03.65.08s.4.13.57.23l-.25.62c-.16-.09-.33-.16-.49-.21s-.32-.07-.48-.07-.29.02-.38.05c-.1.04-.17.08-.21.14-.04.06-.07.13-.07.2,0,.09.04.16.11.22.07.06.17.1.29.13s.25.07.4.1c.14.03.29.07.43.11.15.04.28.1.4.18.12.07.22.17.29.29.08.12.11.27.11.46,0,.2-.05.38-.17.54ZM145.83,200.07h-2.57v-3.5h.81v2.84h1.76v.66ZM149,200.07h-2.71v-3.5h2.64v.65h-1.84v.76h1.62v.63h-1.62v.81h1.91v.65ZM153.74,200.07h-.87l-.77-2.37-.79,2.37h-.87l-1.14-3.5h.84l.79,2.46.83-2.46h.75l.8,2.48.81-2.48h.78l-1.15,3.5ZM158.54,200.07h-.67l-1.75-2.12v2.12h-.8v-3.5h.67l1.74,2.12v-2.12h.8v3.5ZM162.84,199.04c-.1.22-.23.41-.4.58-.17.16-.37.29-.61.38-.23.09-.48.13-.76.13s-.53-.04-.77-.13c-.24-.09-.44-.22-.61-.38s-.3-.35-.4-.58c-.1-.22-.14-.46-.14-.72s.05-.5.14-.72c.09-.22.23-.41.4-.58.17-.16.38-.29.61-.38s.49-.13.76-.13.53.04.76.13c.23.09.43.22.61.38s.31.35.4.57c.1.22.15.46.15.72s-.05.5-.15.72ZM166.2,197.23h-1.12v2.84h-.81v-2.84h-1.12v-.66h3.05v.66ZM169.34,200.07h-2.71v-3.5h2.64v.65h-1.84v.76h1.62v.63h-1.62v.81h1.91v.65ZM172.46,199.59c-.11.16-.27.29-.49.4-.22.1-.49.15-.83.15-.28,0-.55-.04-.81-.11s-.46-.17-.62-.29l.28-.61c.15.11.33.19.53.26s.41.1.62.1c.16,0,.29-.02.39-.05.1-.03.17-.08.22-.13s.07-.12.07-.2c0-.09-.04-.17-.11-.22s-.17-.1-.29-.13-.25-.07-.4-.1c-.14-.03-.29-.07-.43-.12-.15-.05-.28-.11-.4-.18s-.22-.17-.29-.29-.11-.27-.11-.46c0-.2.05-.38.16-.55s.27-.3.49-.39c.22-.1.49-.15.82-.15.22,0,.44.03.65.08s.4.13.57.23l-.25.62c-.16-.09-.33-.16-.49-.21s-.32-.07-.48-.07-.29.02-.38.05c-.1.04-.17.08-.21.14-.04.06-.07.13-.07.2,0,.09.04.16.11.22.07.06.17.1.29.13s.25.07.4.1c.14.03.29.07.43.11.15.04.28.1.4.18.12.07.22.17.29.29.08.12.11.27.11.46,0,.2-.05.38-.17.54Z"/>
    <path class="cls-1" d="M161.85,197.51c-.1-.1-.21-.18-.35-.23-.13-.05-.28-.08-.43-.08s-.3.03-.43.08-.25.13-.35.23c-.1.1-.18.22-.23.35s-.08.29-.08.46.03.31.08.45c.05.14.13.26.23.36.1.1.21.18.35.23.13.05.28.08.44.08s.3-.03.43-.08c.13-.05.25-.13.35-.23.1-.1.18-.22.23-.35.06-.14.08-.29.08-.46s-.03-.32-.08-.46c-.05-.14-.13-.25-.23-.35Z"/>
  </g>
  <path class="cls-1" d="M87.68,195.91h-26.72c-1.04,0-1.88.84-1.88,1.88v1.14c0,1.04.84,1.88,1.88,1.88h26.72c1.04,0,1.88-.84,1.88-1.88v-1.14c0-1.04-.84-1.88-1.88-1.88ZM63.06,199.59c-.11.16-.27.29-.49.4-.22.1-.49.15-.83.15-.28,0-.55-.04-.81-.11s-.46-.17-.62-.29l.28-.61c.15.11.33.19.53.26s.41.1.62.1c.16,0,.29-.02.39-.05.1-.03.17-.08.22-.13s.07-.12.07-.2c0-.09-.04-.17-.11-.22s-.17-.1-.29-.13-.25-.07-.4-.1c-.14-.03-.29-.07-.43-.12-.15-.05-.28-.11-.4-.18s-.22-.17-.29-.29-.11-.27-.11-.46c0-.2.05-.38.16-.55s.27-.3.49-.39c.22-.1.49-.15.82-.15.22,0,.44.03.65.08s.4.13.57.23l-.25.62c-.16-.09-.33-.16-.49-.21s-.32-.07-.48-.07-.29.02-.38.05c-.1.04-.17.08-.21.14-.04.06-.07.13-.07.2,0,.09.04.16.11.22.07.06.17.1.29.13s.25.07.4.1c.14.03.29.07.43.11.15.04.28.1.4.18.12.07.22.17.29.29.08.12.11.27.11.46,0,.2-.05.38-.17.54ZM66.34,200.07h-2.57v-3.5h.81v2.84h1.76v.66ZM69.51,200.07h-2.71v-3.5h2.64v.65h-1.84v.76h1.62v.63h-1.62v.81h1.91v.65ZM74.25,200.07h-.87l-.77-2.37-.79,2.37h-.87l-1.14-3.5h.84l.79,2.46.83-2.46h.75l.8,2.48.81-2.48h.78l-1.15,3.5ZM78.51,197.23h-1.12v2.84h-.81v-2.84h-1.12v-.66h3.05v.66ZM79.75,200.07h-.81v-3.5h.81v3.5ZM83.77,200.07v-2.1s-1.03,1.73-1.03,1.73h-.37l-1.03-1.69v2.06h-.76v-3.5h.67l1.31,2.17,1.29-2.17h.67v3.5s-.75,0-.75,0ZM88.07,200.07h-2.71v-3.5h2.64v.65h-1.84v.76h1.62v.63h-1.62v.81h1.91v.65Z"/>
  <path class="cls-1" d="M81.14,214.6h-9.21c-1.05,0-1.89.85-1.89,1.89v3.13c0,1.05.85,1.89,1.89,1.89h9.21c1.05,0,1.89-.85,1.89-1.89v-3.13c0-1.05-.85-1.89-1.89-1.89ZM81.73,220.82h-7.22v-3.81h-1.34v3.91h-1.5v-5.41h4.34v3.81h5.72v1.5Z"/>
  <path class="cls-1" d="M106.91,214.6h-9.21c-1.05,0-1.89.85-1.89,1.89v3.13c0,1.05.85,1.89,1.89,1.89h9.21c1.05,0,1.89-.85,1.89-1.89v-3.13c0-1.05-.85-1.89-1.89-1.89ZM105.76,216.41c-.84-.05-2.47.03-4.06,1.12-1.46,1-2.13,2.35-2.4,3.07l-.94-.35c.31-.83,1.08-2.38,2.77-3.54,1.84-1.26,3.73-1.35,4.69-1.29l-.06,1Z"/>
  <path class="cls-1" d="M132.69,214.6h-9.21c-1.04,0-1.89.85-1.89,1.89v3.14c0,1.04.85,1.89,1.89,1.89h9.21c1.05,0,1.89-.85,1.89-1.89v-3.14c0-1.04-.84-1.89-1.89-1.89ZM128.16,219.99c-.57,0-1.02-.45-1.02-1.02s.45-1.02,1.02-1.02,1.02.46,1.02,1.02-.46,1.02-1.02,1.02ZM132.36,218.85c-.46-.41-1.1-.86-1.64-1.07l.42-.06c-.75-.87-1.83-1.39-2.97-1.41-1.76.02-3.38,1.2-3.87,2.95l-.97-.28c.62-2.18,2.6-3.7,4.85-3.67,1.51.02,2.95.75,3.88,1.96l.34-.38c-.14.56-.12,1.35-.04,1.96Z"/>
  <path class="cls-1" d="M158.47,214.6h-9.21c-1.04,0-1.89.84-1.89,1.89v3.13c0,1.05.85,1.9,1.89,1.9h9.21c1.05,0,1.89-.85,1.89-1.9v-3.13c0-1.05-.84-1.89-1.89-1.89ZM156.55,216.56h-.92v1.42h-1.42v1.42h-1.41v1.41h-2.02v-1h1.02v-1.41h1.41v-1.42h1.42v-1.42h1.92v1Z"/>
  <g>
    <path class="cls-1" d="M152.19,118.14c-.1-.1-.21-.18-.35-.23-.13-.05-.28-.08-.43-.08s-.3.03-.43.08-.25.13-.35.23c-.1.1-.18.22-.23.35s-.08.29-.08.46.03.31.08.45c.05.14.13.26.23.36.1.1.21.18.35.23.13.05.28.08.44.08s.3-.03.43-.08c.13-.05.25-.13.35-.23.1-.1.18-.22.23-.35.06-.14.08-.29.08-.46s-.03-.32-.08-.46c-.05-.14-.13-.25-.23-.35Z"/>
    <path class="cls-1" d="M146.85,119.08h.66c.25,0,.44-.05.56-.16.12-.11.18-.26.18-.45s-.06-.34-.18-.45c-.12-.11-.31-.16-.56-.16h-.66v1.22Z"/>
    <polygon class="cls-1" points="157.74 119.33 158.85 119.33 158.29 117.99 157.74 119.33"/>
    <path class="cls-1" d="M165.83,116.54h-19.52c-1.04,0-1.88.84-1.88,1.88v1.14c0,1.04.84,1.88,1.88,1.88h19.52c1.04,0,1.88-.84,1.88-1.88v-1.14c0-1.04-.84-1.88-1.88-1.88ZM148.26,120.7l-.67-.98s-.02,0-.04,0h-.71v.97h-.81v-3.5h1.51c.31,0,.58.05.81.15s.4.25.52.44c.12.19.19.42.19.68s-.06.48-.19.67c-.12.19-.3.33-.52.43,0,0,0,0,0,0l.78,1.12h-.88ZM153.18,119.67c-.1.22-.23.41-.4.58-.17.16-.37.29-.61.38-.23.09-.48.13-.76.13s-.53-.04-.77-.13c-.24-.09-.44-.22-.61-.38s-.3-.35-.4-.58c-.1-.22-.14-.46-.14-.72s.05-.5.14-.72c.09-.22.23-.41.4-.58.17-.16.38-.29.61-.38s.49-.13.76-.13.53.04.76.13c.23.09.43.22.61.38s.31.35.4.57c.1.22.15.46.15.72s-.05.5-.15.72ZM155.42,120.7h-.81v-2.84h-1.12v-.66h3.05v.66h-1.12v2.84ZM159.41,120.7l-.31-.75h-1.62l-.31.75h-.83l1.56-3.5h.8l1.56,3.5h-.85ZM163.11,117.86h-1.12v2.84h-.81v-2.84h-1.12v-.66h3.05v.66ZM166.25,120.7h-2.71v-3.5h2.64v.65h-1.84v.76h1.62v.63h-1.62v.81h1.91v.65Z"/>
  </g>
</svg>