<?xml version="1.0" encoding="UTF-8"?>
<svg id="f_silkscreen" xmlns="http://www.w3.org/2000/svg" width="81.28mm" height="128.5mm" viewBox="0 0 230.4 364.25">
  <defs>
    <style>
      .cls-1 {
        fill: #010101;
      }

      .cls-2 {
        fill: #231f20;
      }
    </style>
  </defs>
  <g>
    <path class="cls-2" d="M190.13,209.03c-.43,0-.82-.07-1.18-.21-.36-.14-.67-.34-.94-.6-.26-.26-.47-.56-.62-.91-.15-.35-.22-.73-.22-1.14s.08-.8.22-1.14c.15-.35.36-.65.62-.91.27-.26.58-.46.94-.6.36-.14.75-.21,1.18-.21s.83.07,1.2.22c.37.15.68.36.93.65l-.52.5c-.21-.22-.45-.39-.72-.5s-.55-.16-.86-.16-.61.05-.88.16-.5.26-.7.45c-.2.19-.35.42-.46.68s-.16.55-.16.86.05.6.16.86c.11.26.26.49.46.68.2.19.43.34.7.45.27.11.56.16.88.16s.59-.05.86-.16.51-.28.72-.51l.52.5c-.26.29-.57.51-.93.66s-.77.22-1.2.22Z"/>
    <path class="cls-2" d="M195.42,209.03c-.43,0-.82-.07-1.19-.22-.37-.14-.68-.34-.95-.6-.27-.26-.48-.56-.62-.91-.15-.35-.22-.73-.22-1.14s.08-.79.22-1.14c.15-.35.36-.65.62-.91.27-.26.58-.46.94-.6.36-.14.76-.22,1.19-.22s.82.07,1.18.21c.36.14.67.34.94.6s.48.56.62.91.22.73.22,1.14-.07.8-.22,1.14-.35.65-.62.91-.58.46-.94.6c-.36.14-.75.21-1.18.21ZM195.42,208.32c.31,0,.6-.05.86-.16.26-.11.49-.26.69-.45.19-.2.35-.42.46-.68.11-.26.16-.55.16-.86s-.05-.59-.16-.86c-.11-.26-.26-.49-.46-.68s-.42-.35-.69-.45c-.26-.11-.55-.16-.86-.16s-.6.05-.87.16-.5.26-.69.45-.35.42-.46.68c-.11.26-.16.55-.16.86s.05.59.16.86c.11.26.26.49.46.68.2.19.43.34.69.45.26.11.55.16.87.16Z"/>
    <path class="cls-2" d="M199.21,208.97v-5.6h.66l2.51,4.23h-.35l2.48-4.23h.66s0,5.6,0,5.6h-.77v-4.39s.18,0,.18,0l-2.21,3.71h-.37l-2.22-3.71h.2v4.39h-.77Z"/>
    <path class="cls-2" d="M206.45,208.97v-5.6h2.18c.49,0,.91.08,1.26.23.35.16.61.38.8.67.19.29.28.64.28,1.05s-.09.75-.28,1.04c-.19.29-.45.51-.8.67s-.77.24-1.26.24h-1.74l.36-.38v2.07h-.8ZM207.25,206.97l-.36-.4h1.72c.51,0,.9-.11,1.16-.33s.4-.53.4-.93-.13-.71-.4-.93-.65-.33-1.16-.33h-1.72l.36-.4v3.31Z"/>
    <path class="cls-2" d="M211.74,208.97v-5.6h.8v4.9h3.03v.7h-3.83Z"/>
    <path class="cls-2" d="M215.28,208.97l2.33-3.18v.62l-2.2-3.04h.91l1.74,2.39h-.36s1.74-2.39,1.74-2.39h.87s-2.18,2.99-2.18,2.99v-.58l2.33,3.18h-.92l-1.86-2.55h.35l-1.83,2.55h-.92Z"/>
  </g>
  <path class="cls-1" d="M10.31,218.08s0-1.31,1.09-1.31,1.09,1.31,1.09,1.31v.44h-2.18v-.44ZM9.43,218.08v.44h-.87v4.36h4.36c.74,0,1.31-.57,1.31-1.31v-3.05h-.87v-.44s0-2.18-1.96-2.18-1.96,2.18-1.96,2.18Z"/>
  <path class="cls-1" d="M10.15,247.46v-.82s0-2.05-1.5-2.05-1.5,2.05-1.5,2.05h.67s0-1.23.83-1.23.83,1.23.83,1.23v.82h-1v2.87c0,.7.43,1.23,1,1.23h3.33v-4.1h-2.67Z"/>
  <g>
    <path class="cls-2" d="M94.74,244.69c0,.91-.66,1.46-1.75,1.46h-1.04v1.27h-.6v-4.2h1.64c1.09,0,1.75.55,1.75,1.46ZM94.14,244.69c0-.6-.4-.94-1.17-.94h-1.02v1.88h1.02c.77,0,1.17-.34,1.17-.94Z"/>
    <path class="cls-2" d="M98.09,246.38h-2.23l-.46,1.05h-.62l1.9-4.2h.59l1.91,4.2h-.63l-.46-1.05ZM97.88,245.9l-.91-2.06-.91,2.06h1.81Z"/>
    <path class="cls-2" d="M100.43,243.75h-1.44v-.52h3.47v.52h-1.44v3.68h-.59v-3.68Z"/>
    <path class="cls-2" d="M104.01,243.75h-1.44s0-.52,0-.52h3.47v.52h-1.44v3.68h-.59v-3.68Z"/>
    <path class="cls-2" d="M109.74,246.91v.52h-3.05v-4.2h2.96v.52h-2.36v1.29h2.1s0,.51,0,.51h-2.1v1.36h2.45Z"/>
    <path class="cls-2" d="M113.53,247.43l-.91-1.29c-.08,0-.17.01-.26.01h-1.04v1.28h-.6v-4.2h1.64c1.09,0,1.75.55,1.75,1.46,0,.65-.34,1.12-.92,1.33l1,1.41h-.65ZM113.51,244.69c0-.6-.4-.94-1.17-.94h-1.02v1.89h1.02c.77,0,1.17-.35,1.17-.95Z"/>
    <path class="cls-2" d="M118.69,243.23v4.2h-.49l-2.52-3.13v3.13h-.6s0-4.2,0-4.2h.49l2.52,3.13v-3.13h.6Z"/>
    <path class="cls-2" d="M125.18,246.3c0,.72-.55,1.13-1.61,1.13h-2v-4.2h1.88c.97,0,1.5.41,1.5,1.08,0,.46-.23.77-.56.94.47.13.79.49.79,1.04ZM122.17,243.72v1.34h1.23c.61,0,.96-.23.96-.67s-.35-.67-.96-.67h-1.23ZM124.57,246.25c0-.49-.36-.7-1.03-.7h-1.38v1.4h1.38c.67,0,1.03-.21,1.03-.7Z"/>
    <path class="cls-2" d="M128.78,246.38h-2.23l-.46,1.05h-.62s1.9-4.2,1.9-4.2h.59l1.91,4.2h-.63l-.46-1.05ZM128.57,245.9l-.91-2.06-.91,2.06h1.81Z"/>
    <path class="cls-2" d="M134.11,243.23v4.2s-.49,0-.49,0l-2.52-3.13v3.13s-.6,0-.6,0v-4.2s.49,0,.49,0l2.52,3.13v-3.13h.6Z"/>
    <path class="cls-2" d="M136.74,245.56l-.77.78v1.08s-.6,0-.6,0v-4.2s.6,0,.6,0v2.34l2.28-2.34h.68s-1.79,1.89-1.79,1.89l1.91,2.31h-.7l-1.61-1.87Z"/>
  </g>
  <g>
    <path class="cls-2" d="M92.15,17.73c0,2.99-2.07,4.93-4.88,4.93-1.22,0-2.3-.41-3.08-1.3v4.66h-2.25v-13.11h2.14s0,1.26,0,1.26c.76-.92,1.87-1.37,3.19-1.37,2.81,0,4.88,1.94,4.88,4.92ZM89.87,17.73c0-1.84-1.22-3.01-2.84-3.01s-2.86,1.17-2.86,3.01,1.24,3.01,2.86,3.01,2.84-1.17,2.84-3.01Z"/>
    <path class="cls-2" d="M99.86,12.81v2.14c-.2-.04-.36-.05-.52-.05-1.71,0-2.79,1.01-2.79,2.97v4.66h-2.25s0-9.61,0-9.61h2.14v1.4c.65-1.01,1.82-1.51,3.42-1.51Z"/>
    <path class="cls-2" d="M100.88,17.73c0-2.88,2.16-4.92,5.11-4.92s5.13,2.03,5.13,4.92-2.14,4.93-5.13,4.93-5.11-2.05-5.11-4.93ZM108.86,17.73c0-1.84-1.22-3.01-2.86-3.01s-2.84,1.17-2.84,3.01,1.22,3.01,2.84,3.01,2.86-1.17,2.86-3.01Z"/>
    <path class="cls-2" d="M119.06,22.02c-.54.43-1.35.65-2.16.65-2.11,0-3.31-1.12-3.31-3.24v-4.63h-1.58v-1.8h1.58s0-2.2,0-2.2h2.25v2.2h2.57v1.8h-2.57v4.57c0,.94.47,1.44,1.33,1.44.47,0,.92-.13,1.26-.4l.63,1.6Z"/>
    <path class="cls-2" d="M129.59,18.45h-7.54c.27,1.4,1.44,2.3,3.11,2.3,1.08,0,1.93-.34,2.61-1.04l1.21,1.39c-.86,1.03-2.21,1.57-3.87,1.57-3.22,0-5.31-2.07-5.31-4.93s2.11-4.92,4.97-4.92,4.86,1.96,4.86,4.97c0,.18-.02.45-.04.67ZM122.03,16.96h5.46c-.18-1.39-1.24-2.34-2.72-2.34s-2.52.94-2.74,2.34Z"/>
    <path class="cls-2" d="M141.1,12.92v9.61s-2.14,0-2.14,0v-1.22c-.72.88-1.85,1.35-3.1,1.35-2.47,0-4.14-1.35-4.14-4.25v-5.49s2.25,0,2.25,0v5.19c0,1.75.83,2.57,2.25,2.57,1.57,0,2.63-.97,2.63-2.9v-4.86h2.25Z"/>
    <path class="cls-2" d="M142.95,21.58l.86-1.71c.85.56,2.14.95,3.35.95,1.42,0,2.02-.4,2.02-1.06,0-1.84-5.94-.11-5.94-3.94,0-1.82,1.64-3.01,4.23-3.01,1.28,0,2.74.31,3.6.83l-.86,1.71c-.92-.54-1.84-.72-2.75-.72-1.37,0-2.02.45-2.02,1.08,0,1.94,5.94.22,5.94,3.98,0,1.8-1.66,2.97-4.36,2.97-1.6,0-3.21-.47-4.07-1.08Z"/>
  </g>
  <g>
    <path class="cls-2" d="M11.66,124h.8s0,4.9,0,4.9h3.03v.7h-3.83v-5.6Z"/>
    <path class="cls-2" d="M19.99,128.9v.7h-4.06v-5.6h3.95s0,.7,0,.7h-3.15v1.72h2.81v.68h-2.81v1.81h3.26Z"/>
    <path class="cls-2" d="M25.61,124v5.6h-.66l-3.36-4.17v4.17h-.8s0-5.6,0-5.6h.66s3.36,4.17,3.36,4.17v-4.17h.8Z"/>
    <path class="cls-2" d="M30.68,126.76h.77v2.18c-.56.47-1.33.71-2.12.71-1.72,0-2.98-1.21-2.98-2.86s1.26-2.86,3-2.86c.89,0,1.64.3,2.15.86l-.5.5c-.46-.45-.99-.65-1.62-.65-1.3,0-2.23.9-2.23,2.15,0,1.23.94,2.15,2.22,2.15.47,0,.91-.1,1.31-.36v-1.82Z"/>
    <path class="cls-2" d="M33.6,124.69h-1.92v-.7h4.63v.7h-1.92s0,4.9,0,4.9h-.79v-4.9Z"/>
    <path class="cls-2" d="M41.51,124v5.6h-.8v-2.49h-3.21v2.49s-.8,0-.8,0v-5.6h.8v2.41h3.21v-2.41s.8,0,.8,0Z"/>
  </g>
  <g>
    <path class="cls-2" d="M58.33,124h2.36c1.8,0,3.02,1.14,3.02,2.8s-1.22,2.8-3.02,2.8h-2.36s0-5.6,0-5.6ZM60.64,128.9c1.38,0,2.27-.85,2.27-2.1s-.89-2.1-2.27-2.1h-1.51s0,4.21,0,4.21h1.51Z"/>
    <path class="cls-2" d="M68.52,128.9v.7h-4.06v-5.6h3.95v.7s-3.15,0-3.15,0v1.72s2.81,0,2.81,0v.68s-2.81,0-2.81,0v1.81h3.26Z"/>
    <path class="cls-2" d="M74.14,124v5.6h-.66s-3.36-4.17-3.36-4.17v4.17h-.8v-5.6h.66l3.36,4.17v-4.17s.8,0,.8,0Z"/>
    <path class="cls-2" d="M74.82,128.95l.3-.62c.42.38,1.13.65,1.85.65.97,0,1.38-.38,1.38-.86,0-1.37-3.39-.5-3.39-2.58,0-.86.67-1.6,2.14-1.6.66,0,1.34.18,1.8.5l-.26.64c-.49-.31-1.04-.46-1.54-.46-.95,0-1.36.4-1.36.89,0,1.37,3.39.51,3.39,2.57s-.69,1.59-2.17,1.59c-.86,0-1.7-.29-2.14-.7Z"/>
    <path class="cls-2" d="M79.81,124h.8v5.6h-.8v-5.6Z"/>
    <path class="cls-2" d="M82.92,124.69h-1.92s0-.7,0-.7h4.63s0,.7,0,.7h-1.92v4.9h-.79v-4.9Z"/>
    <path class="cls-2" d="M88.09,127.66v1.94h-.79v-1.95l-2.22-3.65h.86l1.79,2.95,1.8-2.95h.79l-2.22,3.66Z"/>
  </g>
  <g>
    <path class="cls-2" d="M144.32,128.95l.3-.62c.42.38,1.13.65,1.85.65.97,0,1.38-.38,1.38-.86,0-1.37-3.39-.5-3.39-2.58,0-.86.67-1.6,2.14-1.6.66,0,1.33.18,1.8.5l-.26.64c-.49-.31-1.04-.46-1.54-.46-.95,0-1.36.4-1.36.89,0,1.37,3.39.51,3.39,2.57,0,.86-.69,1.59-2.17,1.59-.86,0-1.7-.29-2.14-.7Z"/>
    <path class="cls-2" d="M149.31,124h.8s0,4.9,0,4.9h3.03v.7h-3.83v-5.6Z"/>
    <path class="cls-2" d="M157.63,128.9v.7h-4.06v-5.6h3.95v.7h-3.15v1.72h2.81s0,.68,0,.68h-2.81v1.81h3.26Z"/>
    <path class="cls-2" d="M162.51,128.9v.7h-4.06s0-5.6,0-5.6h3.95v.7h-3.15s0,1.72,0,1.72h2.81v.68h-2.81s0,1.81,0,1.81h3.26Z"/>
    <path class="cls-2" d="M167.83,125.95c0,1.22-.88,1.95-2.33,1.95h-1.38v1.69h-.8v-5.6h2.18c1.46,0,2.33.74,2.33,1.95ZM167.03,125.95c0-.8-.54-1.26-1.56-1.26h-1.36v2.51h1.36c1.02,0,1.56-.46,1.56-1.26Z"/>
  </g>
  <g>
    <path class="cls-2" d="M190.1,125.95c0,1.22-.88,1.95-2.33,1.95h-1.38v1.69h-.8v-5.6h2.18c1.46,0,2.33.74,2.33,1.95ZM189.3,125.95c0-.8-.54-1.26-1.56-1.26h-1.36v2.51h1.36c1.02,0,1.56-.46,1.56-1.26Z"/>
    <path class="cls-2" d="M194.08,128.19h-2.97l-.62,1.4h-.82l2.53-5.6h.79s2.54,5.6,2.54,5.6h-.84l-.62-1.4ZM193.8,127.55l-1.21-2.74-1.21,2.74h2.42Z"/>
    <path class="cls-2" d="M196.71,124.69h-1.92v-.7h4.63v.7h-1.92v4.9h-.79v-4.9Z"/>
    <path class="cls-2" d="M199.81,124h.8s0,5.6,0,5.6h-.8s0-5.6,0-5.6Z"/>
    <path class="cls-2" d="M205.86,128.9v.7h-4.06v-5.6h3.95v.7h-3.15v1.72h2.81v.68h-2.81v1.81h3.26Z"/>
    <path class="cls-2" d="M211.49,124v5.6h-.66s-3.36-4.17-3.36-4.17v4.17h-.8v-5.6h.66l3.36,4.17v-4.17h.8Z"/>
    <path class="cls-2" d="M212.22,126.79c0-1.66,1.26-2.86,2.97-2.86.86,0,1.61.3,2.13.87l-.52.5c-.43-.46-.96-.66-1.58-.66-1.26,0-2.2.91-2.2,2.15s.94,2.15,2.2,2.15c.62,0,1.14-.22,1.58-.67l.52.5c-.51.58-1.26.88-2.13.88-1.69,0-2.96-1.21-2.96-2.86Z"/>
    <path class="cls-2" d="M222.04,128.9v.7h-4.06v-5.6h3.95v.7h-3.15v1.72h2.81v.68h-2.81v1.81h3.26Z"/>
  </g>
  <g>
    <path class="cls-2" d="M14.67,208.33l.3-.62c.42.38,1.13.65,1.85.65.97,0,1.38-.38,1.38-.86,0-1.37-3.39-.5-3.39-2.58,0-.86.67-1.6,2.14-1.6.66,0,1.34.18,1.8.5l-.26.64c-.49-.31-1.04-.46-1.54-.46-.95,0-1.36.4-1.36.89,0,1.37,3.39.51,3.39,2.57,0,.86-.69,1.59-2.17,1.59-.86,0-1.7-.29-2.14-.7Z"/>
    <path class="cls-2" d="M19.2,206.17c0-1.65,1.26-2.86,2.97-2.86.86,0,1.62.3,2.13.87l-.52.5c-.43-.46-.96-.66-1.58-.66-1.26,0-2.2.91-2.2,2.15,0,1.24.94,2.15,2.2,2.15.62,0,1.14-.22,1.58-.67l.52.5c-.51.58-1.26.88-2.13.88-1.7,0-2.96-1.21-2.96-2.86Z"/>
    <path class="cls-2" d="M28.38,207.57h-2.97l-.62,1.4h-.82l2.53-5.6h.79s2.54,5.6,2.54,5.6h-.84l-.62-1.4ZM28.1,206.93l-1.21-2.74-1.21,2.74h2.42Z"/>
    <path class="cls-2" d="M30.19,203.37h.8s0,4.9,0,4.9h3.03v.7h-3.83v-5.6Z"/>
    <path class="cls-2" d="M38.51,208.27v.7h-4.06v-5.6h3.95s0,.7,0,.7h-3.15v1.72s2.81,0,2.81,0v.68s-2.81,0-2.81,0v1.81s3.26,0,3.26,0Z"/>
  </g>
  <g>
    <path class="cls-2" d="M59.29,206.17c0-1.64,1.26-2.86,2.98-2.86s2.97,1.22,2.97,2.86-1.26,2.86-2.97,2.86-2.98-1.22-2.98-2.86ZM64.44,206.17c0-1.24-.93-2.15-2.17-2.15s-2.18.91-2.18,2.15.93,2.15,2.18,2.15,2.17-.91,2.17-2.15Z"/>
    <path class="cls-2" d="M65.52,206.17c0-1.65,1.26-2.86,2.97-2.86.86,0,1.62.3,2.13.87l-.52.5c-.43-.46-.96-.66-1.57-.66-1.26,0-2.2.91-2.2,2.15s.94,2.15,2.2,2.15c.62,0,1.14-.22,1.57-.67l.52.5c-.51.58-1.26.88-2.13.88-1.7,0-2.96-1.21-2.96-2.86Z"/>
    <path class="cls-2" d="M72.32,204.06h-1.92v-.7h4.63v.7h-1.92v4.9s-.79,0-.79,0v-4.9Z"/>
    <path class="cls-2" d="M78.7,207.57h-2.97l-.62,1.4h-.82l2.53-5.6h.79s2.54,5.6,2.54,5.6h-.84l-.62-1.4ZM78.42,206.93l-1.21-2.74-1.21,2.74h2.42Z"/>
    <path class="cls-2" d="M85.07,203.37l-2.45,5.6h-.79l-2.46-5.6h.86l2.02,4.6,2.03-4.6h.8Z"/>
    <path class="cls-2" d="M89.36,208.27v.7s-4.06,0-4.06,0v-5.6h3.95v.7h-3.15v1.72h2.81v.68s-2.81,0-2.81,0v1.81s3.26,0,3.26,0Z"/>
  </g>
  <g>
    <path class="cls-2" d="M146.18,208.97v-4.08s-2.03,3.4-2.03,3.4h-.37l-2.02-3.37v4.05h-.77v-5.6h.66l2.33,3.93,2.3-3.93h.66s0,5.6,0,5.6h-.77Z"/>
    <path class="cls-2" d="M148.09,206.55v-3.18h.8v3.15c0,1.24.57,1.8,1.58,1.8s1.58-.56,1.58-1.8v-3.15h.78v3.18c0,1.62-.89,2.48-2.37,2.48s-2.37-.86-2.37-2.48Z"/>
    <path class="cls-2" d="M154.99,204.06h-1.92v-.7h4.63v.7h-1.92v4.9h-.79v-4.9Z"/>
    <path class="cls-2" d="M161.37,207.57h-2.97l-.62,1.4h-.82l2.53-5.6h.79l2.54,5.6h-.84l-.62-1.4ZM161.09,206.93l-1.21-2.74-1.21,2.74h2.41Z"/>
    <path class="cls-2" d="M164,204.06h-1.92v-.7h4.63v.7h-1.92v4.9h-.79v-4.9Z"/>
    <path class="cls-2" d="M171.16,208.27v.7h-4.06s0-5.6,0-5.6h3.95v.7h-3.15v1.72h2.81v.68h-2.81v1.81h3.26Z"/>
  </g>
  <g>
    <path class="cls-2" d="M4.25,283.26h.7v4.29h2.65s0,.61,0,.61h-3.35s0-4.9,0-4.9Z"/>
    <path class="cls-2" d="M11.54,287.55v.61h-3.56s0-4.9,0-4.9h3.46v.61h-2.76v1.51h2.46v.59h-2.46v1.58h2.86Z"/>
    <path class="cls-2" d="M16.46,283.26v4.9h-.57l-2.94-3.66v3.66h-.7v-4.9h.57l2.94,3.66v-3.66h.7Z"/>
    <path class="cls-2" d="M20.9,285.68h.67v1.91c-.49.41-1.17.62-1.86.62-1.51,0-2.61-1.06-2.61-2.51,0-1.45,1.11-2.51,2.63-2.51.78,0,1.44.26,1.88.76l-.43.43c-.41-.39-.87-.57-1.42-.57-1.13,0-1.95.79-1.95,1.88,0,1.08.82,1.88,1.95,1.88.41,0,.8-.09,1.15-.32v-1.6Z"/>
    <path class="cls-2" d="M23.45,283.87h-1.68s0-.61,0-.61h4.06v.61h-1.68v4.29h-.69v-4.29Z"/>
    <path class="cls-2" d="M30.37,283.26v4.9h-.7s0-2.19,0-2.19h-2.82v2.19h-.7v-4.9h.7v2.11h2.82v-2.11h.7Z"/>
  </g>
  <g>
    <path class="cls-2" d="M35.95,283.26h2.07c1.58,0,2.65.99,2.65,2.45s-1.07,2.45-2.65,2.45h-2.07v-4.9ZM37.97,287.55c1.21,0,1.99-.74,1.99-1.84s-.78-1.84-1.99-1.84h-1.32v3.68s1.32,0,1.32,0Z"/>
    <path class="cls-2" d="M44.86,287.55v.61s-3.56,0-3.56,0v-4.9s3.46,0,3.46,0v.61s-2.76,0-2.76,0v1.51s2.46,0,2.46,0v.59h-2.46s0,1.58,0,1.58h2.86Z"/>
    <path class="cls-2" d="M49.78,283.26v4.9s-.57,0-.57,0l-2.94-3.66v3.66s-.7,0-.7,0v-4.9s.57,0,.57,0l2.94,3.66v-3.66h.7Z"/>
    <path class="cls-2" d="M50.37,287.6l.26-.55c.36.33.99.57,1.62.57.85,0,1.21-.33,1.21-.76,0-1.2-2.97-.44-2.97-2.26,0-.76.59-1.4,1.88-1.4.57,0,1.17.15,1.58.43l-.23.56c-.43-.27-.91-.4-1.34-.4-.83,0-1.19.35-1.19.78s2.97.45,2.97,2.25-.6,1.39-1.9,1.39c-.75,0-1.48-.25-1.88-.62Z"/>
    <path class="cls-2" d="M54.74,283.26h.7v4.9s-.7,0-.7,0v-4.9Z"/>
    <path class="cls-2" d="M57.46,283.87h-1.68v-.61s4.06,0,4.06,0v.61s-1.68,0-1.68,0v4.29h-.69v-4.29Z"/>
    <path class="cls-2" d="M61.99,286.46v1.7h-.69v-1.71l-1.95-3.19h.75l1.57,2.58,1.58-2.58h.69l-1.95,3.21Z"/>
  </g>
  <g>
    <path class="cls-2" d="M72.28,287.6l.26-.55c.36.33.99.57,1.62.57.85,0,1.21-.33,1.21-.76,0-1.2-2.97-.44-2.97-2.26,0-.76.59-1.4,1.88-1.4.57,0,1.17.15,1.58.43l-.23.56c-.43-.27-.91-.4-1.34-.4-.83,0-1.19.35-1.19.78s2.97.45,2.97,2.25c0,.75-.6,1.39-1.9,1.39-.75,0-1.48-.25-1.88-.62Z"/>
    <path class="cls-2" d="M76.65,283.26h.7v4.29h2.65v.61h-3.35v-4.9Z"/>
    <path class="cls-2" d="M83.94,287.55v.61h-3.56s0-4.9,0-4.9h3.46v.61h-2.76v1.51h2.46v.59h-2.46v1.58h2.86Z"/>
    <path class="cls-2" d="M88.2,287.55v.61h-3.56v-4.9h3.46v.61h-2.76v1.51h2.46v.59h-2.46v1.58h2.86Z"/>
    <path class="cls-2" d="M92.86,284.97c0,1.06-.77,1.71-2.04,1.71h-1.21v1.48h-.7v-4.9h1.91c1.27,0,2.04.64,2.04,1.71ZM92.16,284.97c0-.7-.47-1.1-1.37-1.1h-1.19v2.2h1.19c.9,0,1.37-.4,1.37-1.1Z"/>
  </g>
  <g>
    <path class="cls-2" d="M103.21,284.97c0,1.06-.77,1.71-2.04,1.71h-1.21v1.48h-.7v-4.9h1.91c1.27,0,2.04.64,2.04,1.71ZM102.51,284.97c0-.7-.47-1.1-1.37-1.1h-1.19v2.2h1.19c.9,0,1.37-.4,1.37-1.1Z"/>
    <path class="cls-2" d="M106.69,286.93h-2.6l-.54,1.23h-.72l2.22-4.9h.69s2.23,4.9,2.23,4.9h-.74s-.54-1.23-.54-1.23ZM106.44,286.37l-1.06-2.4-1.06,2.4h2.11Z"/>
    <path class="cls-2" d="M108.99,283.87h-1.68v-.61h4.06v.61h-1.68v4.29h-.69v-4.29Z"/>
    <path class="cls-2" d="M111.7,283.26h.7v4.9h-.7v-4.9Z"/>
    <path class="cls-2" d="M117,287.55v.61h-3.56s0-4.9,0-4.9h3.46v.61h-2.76v1.51h2.46v.59h-2.46v1.58h2.86Z"/>
    <path class="cls-2" d="M121.92,283.26v4.9h-.57l-2.94-3.66v3.66h-.7v-4.9h.57l2.94,3.66v-3.66h.7Z"/>
    <path class="cls-2" d="M122.56,285.71c0-1.45,1.11-2.51,2.6-2.51.76,0,1.41.26,1.86.76l-.46.44c-.38-.4-.84-.58-1.38-.58-1.11,0-1.93.8-1.93,1.88s.82,1.88,1.93,1.88c.54,0,1-.19,1.38-.59l.46.44c-.45.5-1.11.77-1.87.77-1.48,0-2.59-1.06-2.59-2.51Z"/>
    <path class="cls-2" d="M131.15,287.55v.61h-3.56v-4.9h3.46s0,.61,0,.61h-2.76v1.51h2.46v.59h-2.46v1.58h2.86Z"/>
  </g>
  <g>
    <path class="cls-2" d="M144,283.26v4.9h-.58l-2.94-3.66v3.66h-.7v-4.9h.57l2.94,3.66v-3.66h.7Z"/>
    <path class="cls-2" d="M148.6,287.55v.61h-3.56v-4.9h3.46v.61h-2.76v1.51h2.46v.59s-2.46,0-2.46,0v1.58s2.86,0,2.86,0Z"/>
    <path class="cls-2" d="M152.33,288.16l-1.47-2.02-1.45,2.02h-.81l1.84-2.51-1.73-2.39h.8l1.37,1.88,1.36-1.88h.76s-1.73,2.37-1.73,2.37l1.86,2.54h-.8Z"/>
    <path class="cls-2" d="M154.3,283.87h-1.68v-.61h4.05v.61h-1.68v4.29h-.69v-4.29Z"/>
  </g>
  <g>
    <path class="cls-2" d="M140.88,334.18l-1.06-1.51c-.1,0-.2.01-.31.01h-1.21v1.49s-.7,0-.7,0v-4.9h1.91c1.27,0,2.04.64,2.04,1.71s-.39,1.3-1.08,1.55l1.16,1.65h-.76ZM140.86,330.99c0-.7-.47-1.1-1.37-1.1h-1.19v2.21s1.19,0,1.19,0c.9,0,1.37-.41,1.37-1.11Z"/>
    <path class="cls-2" d="M145.82,333.57v.61h-3.56v-4.9h3.46s0,.61,0,.61h-2.76v1.51s2.46,0,2.46,0v.59s-2.46,0-2.46,0v1.58h2.86Z"/>
    <path class="cls-2" d="M146.08,333.62l.26-.55c.36.33.99.57,1.62.57.85,0,1.21-.33,1.21-.76,0-1.2-2.97-.44-2.97-2.26,0-.76.59-1.4,1.88-1.4.57,0,1.17.15,1.58.43l-.23.56c-.43-.27-.91-.4-1.34-.4-.83,0-1.19.35-1.19.78s2.97.45,2.97,2.25c0,.75-.6,1.39-1.9,1.39-.75,0-1.48-.25-1.88-.62Z"/>
    <path class="cls-2" d="M154,333.57v.61h-3.56v-4.9h3.46s0,.61,0,.61h-2.76v1.51s2.46,0,2.46,0v.59s-2.46,0-2.46,0v1.58h2.86Z"/>
    <path class="cls-2" d="M155.68,329.89h-1.68v-.61h4.05v.61h-1.68s0,4.29,0,4.29h-.69s0-4.29,0-4.29Z"/>
  </g>
  <g>
    <path class="cls-2" d="M204.29,285.68h.67v1.91c-.49.41-1.17.62-1.86.62-1.51,0-2.61-1.06-2.61-2.51,0-1.45,1.11-2.51,2.63-2.51.78,0,1.44.26,1.88.76l-.43.43c-.41-.39-.87-.57-1.42-.57-1.13,0-1.95.79-1.95,1.88,0,1.08.82,1.88,1.95,1.88.41,0,.8-.09,1.15-.32v-1.6Z"/>
    <path class="cls-2" d="M208.99,286.93h-2.61l-.54,1.23h-.72s2.22-4.9,2.22-4.9h.69l2.23,4.9h-.74l-.54-1.23ZM208.75,286.37l-1.06-2.4-1.06,2.4h2.12Z"/>
    <path class="cls-2" d="M211.3,283.87h-1.68v-.61h4.05v.61h-1.68v4.29h-.69v-4.29Z"/>
    <path class="cls-2" d="M217.56,287.55v.61h-3.56v-4.9h3.46v.61h-2.76v1.51h2.46v.59s-2.46,0-2.46,0v1.58s2.86,0,2.86,0Z"/>
    <path class="cls-2" d="M219.72,283.26h.7v4.9h-.7v-4.9Z"/>
    <path class="cls-2" d="M225.68,283.26v4.9h-.58l-2.94-3.66v3.66h-.7v-4.9h.57l2.94,3.66v-3.66h.7Z"/>
  </g>
  <g>
    <path class="cls-2" d="M13.34,329.28v4.9h-.57l-2.94-3.66v3.66h-.7v-4.9h.57l2.94,3.66v-3.66s.7,0,.7,0Z"/>
    <path class="cls-2" d="M17.94,333.57v.61h-3.56s0-4.9,0-4.9h3.46v.61h-2.76v1.51h2.46v.59h-2.46v1.58h2.86Z"/>
    <path class="cls-2" d="M25.5,329.28l-1.64,4.9h-.74l-1.34-3.92-1.34,3.92h-.75s-1.64-4.9-1.64-4.9h.72l1.32,3.98,1.38-3.98h.64l1.35,4.01,1.35-4.01h.67Z"/>
  </g>
  <g>
    <path class="cls-2" d="M36.78,331.73c0-1.44,1.11-2.51,2.61-2.51s2.6,1.06,2.6,2.51-1.11,2.51-2.6,2.51-2.61-1.07-2.61-2.51ZM41.29,331.73c0-1.09-.81-1.88-1.9-1.88s-1.91.8-1.91,1.88.81,1.88,1.91,1.88,1.9-.8,1.9-1.88Z"/>
    <path class="cls-2" d="M42.24,331.73c0-1.45,1.11-2.51,2.6-2.51.76,0,1.41.26,1.86.76l-.46.44c-.38-.4-.84-.58-1.38-.58-1.11,0-1.93.8-1.93,1.88s.82,1.88,1.93,1.88c.54,0,1-.19,1.38-.59l.46.44c-.45.5-1.11.77-1.87.77-1.48,0-2.59-1.06-2.59-2.51Z"/>
    <path class="cls-2" d="M48.19,329.89h-1.68v-.61s4.06,0,4.06,0v.61s-1.68,0-1.68,0v4.29h-.69v-4.29Z"/>
    <path class="cls-2" d="M53.77,332.95h-2.6l-.54,1.23h-.72l2.22-4.9h.69s2.23,4.9,2.23,4.9h-.74s-.54-1.23-.54-1.23ZM53.53,332.39l-1.06-2.4-1.06,2.4h2.11Z"/>
    <path class="cls-2" d="M59.35,329.28l-2.15,4.9h-.69s-2.16-4.9-2.16-4.9h.76l1.76,4.03,1.78-4.03h.7Z"/>
    <path class="cls-2" d="M63.1,333.57v.61h-3.56v-4.9h3.46v.61s-2.76,0-2.76,0v1.51s2.46,0,2.46,0v.59h-2.46v1.58h2.86Z"/>
  </g>
  <g>
    <path class="cls-2" d="M73.91,334.15v-3.57s-1.78,2.98-1.78,2.98h-.32l-1.77-2.96v3.55h-.67s0-4.9,0-4.9h.57l2.05,3.45,2.02-3.45h.57s0,4.9,0,4.9h-.67Z"/>
    <path class="cls-2" d="M75.58,332.04v-2.79h.7v2.76c0,1.09.5,1.58,1.38,1.58s1.39-.49,1.39-1.58v-2.76h.68v2.79c0,1.42-.78,2.17-2.07,2.17s-2.07-.75-2.07-2.17Z"/>
    <path class="cls-2" d="M81.62,329.86h-1.68v-.61h4.06v.61h-1.68v4.29h-.69v-4.29Z"/>
    <path class="cls-2" d="M87.2,332.92h-2.6l-.54,1.23h-.72s2.22-4.9,2.22-4.9h.69l2.23,4.9h-.74l-.54-1.23ZM86.96,332.36l-1.06-2.4-1.06,2.4h2.11Z"/>
    <path class="cls-2" d="M89.51,329.86h-1.68v-.61h4.06v.61h-1.68v4.29h-.69v-4.29Z"/>
    <path class="cls-2" d="M95.77,333.54v.61h-3.56v-4.9h3.46v.61h-2.76v1.51h2.46v.59h-2.46v1.58h2.86Z"/>
  </g>
  <g>
    <path class="cls-2" d="M168.7,283.87h-1.68v-.61h4.05v.61h-1.68v4.29h-.69v-4.29Z"/>
    <path class="cls-2" d="M174.69,288.16l-1.06-1.51c-.1,0-.2.01-.31.01h-1.21v1.49h-.7v-4.9h1.91c1.28,0,2.05.64,2.05,1.71,0,.76-.39,1.3-1.08,1.55l1.16,1.65h-.76ZM174.66,284.97c0-.7-.47-1.1-1.37-1.1h-1.19v2.21h1.19c.9,0,1.37-.41,1.37-1.11Z"/>
    <path class="cls-2" d="M179.19,286.94h-2.61l-.54,1.23h-.72l2.22-4.9h.69l2.23,4.9h-.74l-.54-1.23ZM178.95,286.38l-1.06-2.4-1.06,2.4h2.12Z"/>
    <path class="cls-2" d="M184.98,283.26v4.9h-.58s-2.94-3.66-2.94-3.66v3.66h-.7v-4.9h.57l2.94,3.66v-3.66h.7Z"/>
    <path class="cls-2" d="M185.57,287.6l.26-.55c.36.33.99.57,1.62.57.85,0,1.21-.33,1.21-.76,0-1.2-2.97-.44-2.97-2.26,0-.76.59-1.4,1.88-1.4.57,0,1.17.15,1.58.43l-.23.56c-.43-.27-.91-.4-1.34-.4-.83,0-1.19.35-1.19.78,0,1.2,2.97.45,2.97,2.25,0,.75-.6,1.39-1.9,1.39-.75,0-1.48-.25-1.88-.62Z"/>
    <path class="cls-2" d="M193.9,284.97c0,1.06-.77,1.71-2.04,1.71h-1.21v1.48h-.7v-4.9h1.91c1.27,0,2.04.64,2.04,1.71ZM193.2,284.97c0-.7-.47-1.1-1.37-1.1h-1.19v2.2h1.19c.9,0,1.37-.4,1.37-1.1Z"/>
  </g>
  <g>
    <path class="cls-2" d="M175.72,334h.67s0,1.91,0,1.91c-.49.41-1.17.62-1.86.62-1.51,0-2.61-1.06-2.61-2.51s1.11-2.51,2.63-2.51c.78,0,1.44.26,1.88.76l-.43.43c-.41-.39-.87-.57-1.42-.57-1.13,0-1.95.79-1.95,1.88s.82,1.88,1.95,1.88c.41,0,.8-.09,1.15-.32v-1.6Z"/>
    <path class="cls-2" d="M180.43,335.25h-2.61l-.54,1.23h-.72s2.22-4.9,2.22-4.9h.69s2.23,4.9,2.23,4.9h-.74s-.54-1.23-.54-1.23ZM180.18,334.69l-1.06-2.4-1.06,2.4h2.12Z"/>
    <path class="cls-2" d="M182.73,332.19h-1.68v-.61h4.05s0,.61,0,.61h-1.68v4.29h-.69v-4.29Z"/>
    <path class="cls-2" d="M188.99,335.87v.61h-3.56s0-4.9,0-4.9h3.46v.61h-2.76v1.51h2.46v.59h-2.46v1.58h2.86Z"/>
    <path class="cls-2" d="M173.54,342.43c0-1.44,1.11-2.51,2.61-2.51s2.6,1.06,2.6,2.51-1.11,2.51-2.6,2.51-2.61-1.07-2.61-2.51ZM178.05,342.43c0-1.09-.81-1.88-1.9-1.88s-1.91.8-1.91,1.88.81,1.88,1.91,1.88,1.9-.8,1.9-1.88Z"/>
    <path class="cls-2" d="M179.35,342.76v-2.79h.7v2.76c0,1.09.5,1.58,1.38,1.58s1.39-.49,1.39-1.58v-2.76h.68v2.79c0,1.42-.78,2.17-2.07,2.17s-2.07-.75-2.07-2.17Z"/>
    <path class="cls-2" d="M185.38,340.59h-1.68v-.61h4.05v.61h-1.68s0,4.29,0,4.29h-.69s0-4.29,0-4.29Z"/>
  </g>
  <g>
    <path class="cls-2" d="M207.94,332.05l-2.15,4.9h-.69l-2.16-4.9h.76s1.77,4.03,1.77,4.03l1.78-4.03h.7Z"/>
    <path class="cls-2" d="M209.34,331.05h.61l-2.31,6.6h-.61l2.31-6.6Z"/>
    <path class="cls-2" d="M209.46,334.5c0-1.44,1.11-2.51,2.61-2.51s2.6,1.06,2.6,2.51c0,1.44-1.11,2.51-2.6,2.51s-2.61-1.07-2.61-2.51ZM213.97,334.5c0-1.09-.81-1.88-1.9-1.88s-1.91.8-1.91,1.88c0,1.08.81,1.88,1.91,1.88s1.9-.8,1.9-1.88Z"/>
    <path class="cls-2" d="M214.91,334.5c0-1.45,1.11-2.51,2.6-2.51.76,0,1.42.26,1.86.76l-.46.44c-.38-.4-.84-.58-1.38-.58-1.11,0-1.93.8-1.93,1.88,0,1.08.82,1.88,1.93,1.88.54,0,1-.19,1.38-.59l.46.44c-.45.5-1.11.77-1.87.77-1.49,0-2.59-1.06-2.59-2.51Z"/>
    <path class="cls-2" d="M220.86,332.66h-1.68v-.61h4.05v.61h-1.68v4.29h-.69v-4.29Z"/>
    <path class="cls-2" d="M206.15,342.9c0-1.44,1.11-2.51,2.61-2.51s2.6,1.06,2.6,2.51-1.11,2.51-2.6,2.51-2.61-1.07-2.61-2.51ZM210.66,342.9c0-1.09-.81-1.88-1.9-1.88s-1.91.8-1.91,1.88.81,1.88,1.91,1.88,1.9-.8,1.9-1.88Z"/>
    <path class="cls-2" d="M211.96,343.23v-2.79h.7v2.76c0,1.09.5,1.58,1.38,1.58s1.39-.49,1.39-1.58v-2.76h.68v2.79c0,1.42-.78,2.17-2.07,2.17s-2.07-.75-2.07-2.17Z"/>
    <path class="cls-2" d="M218,341.06h-1.68v-.61h4.05v.61h-1.68s0,4.29,0,4.29h-.69s0-4.29,0-4.29Z"/>
  </g>
  <g>
    <path class="cls-2" d="M36.85,34.91v4.2h-.59s0-3.68,0-3.68h-.95v-.52h1.54Z"/>
    <path class="cls-2" d="M60.32,38.59v.52h-3.02v-.41l1.71-1.65c.44-.43.53-.7.53-.96,0-.43-.31-.7-.89-.7-.45,0-.82.14-1.07.46l-.41-.35c.32-.4.88-.64,1.54-.64.88,0,1.44.45,1.44,1.17,0,.41-.12.77-.69,1.32l-1.28,1.24h2.15Z"/>
    <path class="cls-2" d="M83.29,37.87c0,.71-.52,1.28-1.59,1.28-.6,0-1.19-.19-1.54-.51l.28-.47c.28.26.75.45,1.27.45.63,0,.99-.29.99-.74,0-.44-.32-.73-1.04-.73h-.34v-.42s1.06-1.29,1.06-1.29h-2.02v-.52h2.77v.41l-1.1,1.36c.84.08,1.27.55,1.27,1.2Z"/>
    <path class="cls-2" d="M105.85,38.08h-.8s0,1.03,0,1.03h-.58s0-1.03,0-1.03h-2.33v-.42l2.15-2.75h.65l-2.06,2.65h1.61v-.91h.56s0,.91,0,.91h.8v.52Z"/>
    <path class="cls-2" d="M128.76,37.85c0,.73-.52,1.31-1.59,1.31-.59,0-1.18-.19-1.54-.51l.28-.47c.28.26.75.45,1.26.45.64,0,1-.29,1-.75s-.3-.77-1.27-.77h-.95l.22-2.19h2.37v.52h-1.87l-.11,1.15h.47c1.25,0,1.75.52,1.75,1.27Z"/>
    <path class="cls-2" d="M150.87,37.83c0,.81-.65,1.33-1.49,1.33-1.13,0-1.76-.76-1.76-2.09,0-1.43.81-2.2,1.98-2.2.4,0,.77.08,1.04.25l-.23.47c-.21-.14-.5-.2-.8-.2-.85,0-1.4.53-1.4,1.58s0,.1,0,.15c.24-.36.68-.55,1.21-.55.83,0,1.44.5,1.44,1.27ZM150.28,37.85c0-.49-.37-.81-.96-.81s-.97.35-.97.82.35.81,1,.81c.54,0,.93-.32.93-.82Z"/>
    <path class="cls-2" d="M173.98,34.91v.41l-1.7,3.79h-.63l1.66-3.68h-1.92v.75h-.58v-1.27h3.17Z"/>
    <path class="cls-2" d="M196.17,37.92c0,.76-.65,1.24-1.67,1.24s-1.66-.47-1.66-1.24c0-.48.26-.83.74-1.01-.38-.18-.59-.49-.59-.91,0-.7.61-1.14,1.51-1.14s1.52.44,1.52,1.14c0,.41-.21.73-.59.91.48.19.74.53.74,1.01ZM195.57,37.9c0-.46-.41-.75-1.07-.75s-1.06.29-1.06.75.4.77,1.06.77,1.07-.29,1.07-.77ZM193.58,36.02c0,.41.34.67.92.67s.94-.26.94-.67c0-.42-.37-.68-.94-.68s-.92.26-.92.68Z"/>
  </g>
  <polygon class="cls-2" points="61.51 239.17 60.51 239.17 60.51 245.92 88.79 245.92 88.79 244.92 61.51 244.92 61.51 239.17"/>
  <polygon class="cls-2" points="169.14 239.17 168.14 239.17 168.14 244.92 140.86 244.92 140.86 245.92 169.14 245.92 169.14 239.17"/>
  <g>
    <path class="cls-2" d="M112.36,162.5v3.5h-.41l-2.1-2.61v2.61h-.5v-3.5h.41l2.1,2.61v-2.61h.5Z"/>
    <path class="cls-2" d="M115.65,165.57v.44h-2.54s0-3.5,0-3.5h2.47v.44h-1.97s0,1.08,0,1.08h1.76v.43h-1.76s0,1.13,0,1.13h2.04Z"/>
    <path class="cls-2" d="M121.05,162.5l-1.17,3.5h-.53l-.96-2.8-.96,2.8h-.54l-1.17-3.5h.52l.95,2.85.99-2.85h.46l.97,2.86.97-2.86h.48Z"/>
  </g>
  <g>
    <path class="cls-2" d="M103.45,334.23c-.37,0-.72-.06-1.03-.19-.31-.12-.59-.3-.82-.52-.23-.23-.41-.49-.54-.79-.13-.3-.2-.64-.2-1s.07-.7.2-1c.13-.3.31-.57.55-.79.23-.23.51-.4.82-.53s.66-.19,1.03-.19.73.06,1.05.19c.32.13.59.32.82.57l-.46.44c-.19-.2-.4-.34-.63-.44s-.48-.14-.75-.14-.53.05-.77.14c-.24.09-.44.22-.61.39-.17.17-.31.37-.4.6-.1.23-.14.48-.14.75s.05.52.14.75c.1.23.23.43.4.6.17.17.38.3.61.39.24.09.49.14.77.14s.52-.05.75-.14c.23-.09.44-.24.63-.44l.46.44c-.22.25-.5.44-.82.57-.32.13-.67.2-1.05.2Z"/>
    <path class="cls-2" d="M107.99,334.23c-.37,0-.72-.06-1.04-.19-.32-.13-.6-.3-.83-.53-.23-.23-.42-.49-.55-.79-.13-.3-.2-.63-.2-.99s.07-.69.2-.99c.13-.3.31-.57.55-.79s.51-.4.83-.53.67-.19,1.04-.19.72.06,1.03.19.59.3.83.53c.24.23.42.49.55.79.13.3.19.64.19,1s-.06.7-.19,1c-.13.3-.31.57-.55.79-.24.23-.51.4-.83.52-.31.12-.66.19-1.03.19ZM107.99,333.61c.27,0,.52-.05.75-.14.23-.09.43-.22.6-.4.17-.17.3-.37.4-.6.1-.23.14-.48.14-.75s-.05-.52-.14-.75c-.1-.23-.23-.43-.4-.6-.17-.17-.37-.3-.6-.4-.23-.09-.48-.14-.75-.14s-.53.05-.76.14c-.23.09-.43.23-.61.4-.17.17-.31.37-.4.6-.1.23-.14.48-.14.75s.05.52.14.75c.1.23.23.43.4.6.17.17.37.3.61.4s.48.14.76.14Z"/>
    <path class="cls-2" d="M111.22,334.18v-4.9h.57l2.2,3.7h-.31l2.17-3.7h.57v4.9s-.67,0-.67,0v-3.84s.15,0,.15,0l-1.93,3.25h-.32l-1.95-3.25h.18s0,3.84,0,3.84h-.67Z"/>
    <path class="cls-2" d="M117.46,334.18v-4.9h1.91c.43,0,.8.07,1.1.2.3.14.54.33.7.59.16.26.25.56.25.92s-.08.66-.25.91c-.16.25-.4.45-.7.59-.3.14-.67.21-1.1.21h-1.53l.31-.33v1.81h-.7ZM118.16,332.43l-.31-.35h1.5c.45,0,.79-.1,1.02-.29s.35-.46.35-.81-.12-.62-.35-.81-.57-.29-1.02-.29h-1.5l.31-.35v2.9Z"/>
    <path class="cls-2" d="M122,334.18v-4.9h.7v4.29h2.65v.61h-3.35Z"/>
    <path class="cls-2" d="M125.01,334.18l2.04-2.78v.54l-1.92-2.66h.8l1.53,2.09h-.32s1.52-2.09,1.52-2.09h.76l-1.91,2.62v-.5l2.04,2.79h-.8l-1.62-2.23h.31l-1.6,2.23h-.81Z"/>
  </g>
  <g>
    <path class="cls-2" d="M92.15,17.73c0,2.99-2.07,4.93-4.88,4.93-1.22,0-2.3-.41-3.08-1.3v4.66h-2.25v-13.11h2.14s0,1.26,0,1.26c.76-.92,1.87-1.37,3.19-1.37,2.81,0,4.88,1.94,4.88,4.92ZM89.87,17.73c0-1.84-1.22-3.01-2.84-3.01s-2.86,1.17-2.86,3.01,1.24,3.01,2.86,3.01,2.84-1.17,2.84-3.01Z"/>
    <path class="cls-2" d="M99.86,12.81v2.14c-.2-.04-.36-.05-.52-.05-1.71,0-2.79,1.01-2.79,2.97v4.66h-2.25s0-9.61,0-9.61h2.14v1.4c.65-1.01,1.82-1.51,3.42-1.51Z"/>
    <path class="cls-2" d="M100.88,17.73c0-2.88,2.16-4.92,5.11-4.92s5.13,2.03,5.13,4.92-2.14,4.93-5.13,4.93-5.11-2.05-5.11-4.93ZM108.86,17.73c0-1.84-1.22-3.01-2.86-3.01s-2.84,1.17-2.84,3.01,1.22,3.01,2.84,3.01,2.86-1.17,2.86-3.01Z"/>
    <path class="cls-2" d="M119.06,22.02c-.54.43-1.35.65-2.16.65-2.11,0-3.31-1.12-3.31-3.24v-4.63h-1.58v-1.8h1.58s0-2.2,0-2.2h2.25v2.2h2.57v1.8h-2.57v4.57c0,.94.47,1.44,1.33,1.44.47,0,.92-.13,1.26-.4l.63,1.6Z"/>
    <path class="cls-2" d="M129.59,18.45h-7.54c.27,1.4,1.44,2.3,3.11,2.3,1.08,0,1.93-.34,2.61-1.04l1.21,1.39c-.86,1.03-2.21,1.57-3.87,1.57-3.22,0-5.31-2.07-5.31-4.93s2.11-4.92,4.97-4.92,4.86,1.96,4.86,4.97c0,.18-.02.45-.04.67ZM122.03,16.96h5.46c-.18-1.39-1.24-2.34-2.72-2.34s-2.52.94-2.74,2.34Z"/>
    <path class="cls-2" d="M141.1,12.92v9.61s-2.14,0-2.14,0v-1.22c-.72.88-1.85,1.35-3.1,1.35-2.47,0-4.14-1.35-4.14-4.25v-5.49s2.25,0,2.25,0v5.19c0,1.75.83,2.57,2.25,2.57,1.57,0,2.63-.97,2.63-2.9v-4.86h2.25Z"/>
    <path class="cls-2" d="M142.95,21.58l.86-1.71c.85.56,2.14.95,3.35.95,1.42,0,2.02-.4,2.02-1.06,0-1.84-5.94-.11-5.94-3.94,0-1.82,1.64-3.01,4.23-3.01,1.28,0,2.74.31,3.6.83l-.86,1.71c-.92-.54-1.84-.72-2.75-.72-1.37,0-2.02.45-2.02,1.08,0,1.94,5.94.22,5.94,3.98,0,1.8-1.66,2.97-4.36,2.97-1.6,0-3.21-.47-4.07-1.08Z"/>
  </g>
  <g>
    <path class="cls-2" d="M140.88,334.18l-1.06-1.51c-.1,0-.2.01-.31.01h-1.21v1.49s-.7,0-.7,0v-4.9h1.91c1.27,0,2.04.64,2.04,1.71s-.39,1.3-1.08,1.55l1.16,1.65h-.76ZM140.86,330.99c0-.7-.47-1.1-1.37-1.1h-1.19v2.21s1.19,0,1.19,0c.9,0,1.37-.41,1.37-1.11Z"/>
    <path class="cls-2" d="M145.82,333.57v.61h-3.56v-4.9h3.46s0,.61,0,.61h-2.76v1.51s2.46,0,2.46,0v.59s-2.46,0-2.46,0v1.58h2.86Z"/>
    <path class="cls-2" d="M146.08,333.62l.26-.55c.36.33.99.57,1.62.57.85,0,1.21-.33,1.21-.76,0-1.2-2.97-.44-2.97-2.26,0-.76.59-1.4,1.88-1.4.57,0,1.17.15,1.58.43l-.23.56c-.43-.27-.91-.4-1.34-.4-.83,0-1.19.35-1.19.78s2.97.45,2.97,2.25c0,.75-.6,1.39-1.9,1.39-.75,0-1.48-.25-1.88-.62Z"/>
    <path class="cls-2" d="M154,333.57v.61h-3.56v-4.9h3.46s0,.61,0,.61h-2.76v1.51s2.46,0,2.46,0v.59s-2.46,0-2.46,0v1.58h2.86Z"/>
    <path class="cls-2" d="M155.68,329.89h-1.68v-.61h4.05v.61h-1.68s0,4.29,0,4.29h-.69s0-4.29,0-4.29Z"/>
  </g>
  <g>
    <path class="cls-2" d="M13.34,329.28v4.9h-.57l-2.94-3.66v3.66h-.7v-4.9h.57l2.94,3.66v-3.66s.7,0,.7,0Z"/>
    <path class="cls-2" d="M17.94,333.57v.61h-3.56s0-4.9,0-4.9h3.46v.61h-2.76v1.51h2.46v.59h-2.46v1.58h2.86Z"/>
    <path class="cls-2" d="M25.5,329.28l-1.64,4.9h-.74l-1.34-3.92-1.34,3.92h-.75s-1.64-4.9-1.64-4.9h.72l1.32,3.98,1.38-3.98h.64l1.35,4.01,1.35-4.01h.67Z"/>
  </g>
  <g>
    <path class="cls-2" d="M36.78,331.73c0-1.44,1.11-2.51,2.61-2.51s2.6,1.06,2.6,2.51-1.11,2.51-2.6,2.51-2.61-1.07-2.61-2.51ZM41.29,331.73c0-1.09-.81-1.88-1.9-1.88s-1.91.8-1.91,1.88.81,1.88,1.91,1.88,1.9-.8,1.9-1.88Z"/>
    <path class="cls-2" d="M42.24,331.73c0-1.45,1.11-2.51,2.6-2.51.76,0,1.41.26,1.86.76l-.46.44c-.38-.4-.84-.58-1.38-.58-1.11,0-1.93.8-1.93,1.88s.82,1.88,1.93,1.88c.54,0,1-.19,1.38-.59l.46.44c-.45.5-1.11.77-1.87.77-1.48,0-2.59-1.06-2.59-2.51Z"/>
    <path class="cls-2" d="M48.19,329.89h-1.68v-.61s4.06,0,4.06,0v.61s-1.68,0-1.68,0v4.29h-.69v-4.29Z"/>
    <path class="cls-2" d="M53.77,332.95h-2.6l-.54,1.23h-.72l2.22-4.9h.69s2.23,4.9,2.23,4.9h-.74s-.54-1.23-.54-1.23ZM53.53,332.39l-1.06-2.4-1.06,2.4h2.11Z"/>
    <path class="cls-2" d="M59.35,329.28l-2.15,4.9h-.69s-2.16-4.9-2.16-4.9h.76l1.76,4.03,1.78-4.03h.7Z"/>
    <path class="cls-2" d="M63.1,333.57v.61h-3.56v-4.9h3.46v.61s-2.76,0-2.76,0v1.51s2.46,0,2.46,0v.59h-2.46v1.58h2.86Z"/>
  </g>
  <g>
    <path class="cls-2" d="M73.91,334.15v-3.57s-1.78,2.98-1.78,2.98h-.32l-1.77-2.96v3.55h-.67s0-4.9,0-4.9h.57l2.05,3.45,2.02-3.45h.57s0,4.9,0,4.9h-.67Z"/>
    <path class="cls-2" d="M75.58,332.04v-2.79h.7v2.76c0,1.09.5,1.58,1.38,1.58s1.39-.49,1.39-1.58v-2.76h.68v2.79c0,1.42-.78,2.17-2.07,2.17s-2.07-.75-2.07-2.17Z"/>
    <path class="cls-2" d="M81.62,329.86h-1.68v-.61h4.06v.61h-1.68v4.29h-.69v-4.29Z"/>
    <path class="cls-2" d="M87.2,332.92h-2.6l-.54,1.23h-.72s2.22-4.9,2.22-4.9h.69l2.23,4.9h-.74l-.54-1.23ZM86.96,332.36l-1.06-2.4-1.06,2.4h2.11Z"/>
    <path class="cls-2" d="M89.51,329.86h-1.68v-.61h4.06v.61h-1.68v4.29h-.69v-4.29Z"/>
    <path class="cls-2" d="M95.77,333.54v.61h-3.56v-4.9h3.46v.61h-2.76v1.51h2.46v.59h-2.46v1.58h2.86Z"/>
  </g>
  <g>
    <path class="cls-2" d="M36.85,34.91v4.2h-.59s0-3.68,0-3.68h-.95v-.52h1.54Z"/>
    <path class="cls-2" d="M60.32,38.59v.52h-3.02v-.41l1.71-1.65c.44-.43.53-.7.53-.96,0-.43-.31-.7-.89-.7-.45,0-.82.14-1.07.46l-.41-.35c.32-.4.88-.64,1.54-.64.88,0,1.44.45,1.44,1.17,0,.41-.12.77-.69,1.32l-1.28,1.24h2.15Z"/>
    <path class="cls-2" d="M83.29,37.87c0,.71-.52,1.28-1.59,1.28-.6,0-1.19-.19-1.54-.51l.28-.47c.28.26.75.45,1.27.45.63,0,.99-.29.99-.74,0-.44-.32-.73-1.04-.73h-.34v-.42s1.06-1.29,1.06-1.29h-2.02v-.52h2.77v.41l-1.1,1.36c.84.08,1.27.55,1.27,1.2Z"/>
    <path class="cls-2" d="M105.85,38.08h-.8s0,1.03,0,1.03h-.58s0-1.03,0-1.03h-2.33v-.42l2.15-2.75h.65l-2.06,2.65h1.61v-.91h.56s0,.91,0,.91h.8v.52Z"/>
    <path class="cls-2" d="M128.76,37.85c0,.73-.52,1.31-1.59,1.31-.59,0-1.18-.19-1.54-.51l.28-.47c.28.26.75.45,1.26.45.64,0,1-.29,1-.75s-.3-.77-1.27-.77h-.95l.22-2.19h2.37v.52h-1.87l-.11,1.15h.47c1.25,0,1.75.52,1.75,1.27Z"/>
    <path class="cls-2" d="M150.87,37.83c0,.81-.65,1.33-1.49,1.33-1.13,0-1.76-.76-1.76-2.09,0-1.43.81-2.2,1.98-2.2.4,0,.77.08,1.04.25l-.23.47c-.21-.14-.5-.2-.8-.2-.85,0-1.4.53-1.4,1.58s0,.1,0,.15c.24-.36.68-.55,1.21-.55.83,0,1.44.5,1.44,1.27ZM150.28,37.85c0-.49-.37-.81-.96-.81s-.97.35-.97.82.35.81,1,.81c.54,0,.93-.32.93-.82Z"/>
    <path class="cls-2" d="M173.98,34.91v.41l-1.7,3.79h-.63l1.66-3.68h-1.92v.75h-.58v-1.27h3.17Z"/>
    <path class="cls-2" d="M196.17,37.92c0,.76-.65,1.24-1.67,1.24s-1.66-.47-1.66-1.24c0-.48.26-.83.74-1.01-.38-.18-.59-.49-.59-.91,0-.7.61-1.14,1.51-1.14s1.52.44,1.52,1.14c0,.41-.21.73-.59.91.48.19.74.53.74,1.01ZM195.57,37.9c0-.46-.41-.75-1.07-.75s-1.06.29-1.06.75.4.77,1.06.77,1.07-.29,1.07-.77ZM193.58,36.02c0,.41.34.67.92.67s.94-.26.94-.67c0-.42-.37-.68-.94-.68s-.92.26-.92.68Z"/>
  </g>
  <rect class="cls-2" x="167.65" y="295" width="58.73" height="32.5" rx="12.85" ry="12.85"/>
  <g>
    <path class="cls-2" d="M112.36,162.5v3.5h-.41l-2.1-2.61v2.61h-.5v-3.5h.41l2.1,2.61v-2.61h.5Z"/>
    <path class="cls-2" d="M115.65,165.57v.44h-2.54s0-3.5,0-3.5h2.47v.44h-1.97s0,1.08,0,1.08h1.76v.43h-1.76s0,1.13,0,1.13h2.04Z"/>
    <path class="cls-2" d="M121.05,162.5l-1.17,3.5h-.53l-.96-2.8-.96,2.8h-.54l-1.17-3.5h.52l.95,2.85.99-2.85h.46l.97,2.86.97-2.86h.48Z"/>
  </g>
  <g>
    <path class="cls-2" d="M103.45,334.23c-.37,0-.72-.06-1.03-.19-.31-.12-.59-.3-.82-.52-.23-.23-.41-.49-.54-.79-.13-.3-.2-.64-.2-1s.07-.7.2-1c.13-.3.31-.57.55-.79.23-.23.51-.4.82-.53s.66-.19,1.03-.19.73.06,1.05.19c.32.13.59.32.82.57l-.46.44c-.19-.2-.4-.34-.63-.44s-.48-.14-.75-.14-.53.05-.77.14c-.24.09-.44.22-.61.39-.17.17-.31.37-.4.6-.1.23-.14.48-.14.75s.05.52.14.75c.1.23.23.43.4.6.17.17.38.3.61.39.24.09.49.14.77.14s.52-.05.75-.14c.23-.09.44-.24.63-.44l.46.44c-.22.25-.5.44-.82.57-.32.13-.67.2-1.05.2Z"/>
    <path class="cls-2" d="M107.99,334.23c-.37,0-.72-.06-1.04-.19-.32-.13-.6-.3-.83-.53-.23-.23-.42-.49-.55-.79-.13-.3-.2-.63-.2-.99s.07-.69.2-.99c.13-.3.31-.57.55-.79s.51-.4.83-.53.67-.19,1.04-.19.72.06,1.03.19.59.3.83.53c.24.23.42.49.55.79.13.3.19.64.19,1s-.06.7-.19,1c-.13.3-.31.57-.55.79-.24.23-.51.4-.83.52-.31.12-.66.19-1.03.19ZM107.99,333.61c.27,0,.52-.05.75-.14.23-.09.43-.22.6-.4.17-.17.3-.37.4-.6.1-.23.14-.48.14-.75s-.05-.52-.14-.75c-.1-.23-.23-.43-.4-.6-.17-.17-.37-.3-.6-.4-.23-.09-.48-.14-.75-.14s-.53.05-.76.14c-.23.09-.43.23-.61.4-.17.17-.31.37-.4.6-.1.23-.14.48-.14.75s.05.52.14.75c.1.23.23.43.4.6.17.17.37.3.61.4s.48.14.76.14Z"/>
    <path class="cls-2" d="M111.22,334.18v-4.9h.57l2.2,3.7h-.31l2.17-3.7h.57v4.9s-.67,0-.67,0v-3.84s.15,0,.15,0l-1.93,3.25h-.32l-1.95-3.25h.18s0,3.84,0,3.84h-.67Z"/>
    <path class="cls-2" d="M117.46,334.18v-4.9h1.91c.43,0,.8.07,1.1.2.3.14.54.33.7.59.16.26.25.56.25.92s-.08.66-.25.91c-.16.25-.4.45-.7.59-.3.14-.67.21-1.1.21h-1.53l.31-.33v1.81h-.7ZM118.16,332.43l-.31-.35h1.5c.45,0,.79-.1,1.02-.29s.35-.46.35-.81-.12-.62-.35-.81-.57-.29-1.02-.29h-1.5l.31-.35v2.9Z"/>
    <path class="cls-2" d="M122,334.18v-4.9h.7v4.29h2.65v.61h-3.35Z"/>
    <path class="cls-2" d="M125.01,334.18l2.04-2.78v.54l-1.92-2.66h.8l1.53,2.09h-.32s1.52-2.09,1.52-2.09h.76l-1.91,2.62v-.5l2.04,2.79h-.8l-1.62-2.23h.31l-1.6,2.23h-.81Z"/>
  </g>
  <circle class="cls-2" cx="221.62" cy="247.49" r="4.25"/>
  <g>
    <path class="cls-2" d="M35.71,67.56c-.31,0-.6-.05-.87-.16-.27-.11-.5-.25-.69-.45-.2-.19-.35-.42-.46-.67-.11-.26-.16-.54-.16-.85s.05-.59.16-.85c.11-.26.26-.48.46-.67.2-.19.43-.34.69-.45s.55-.16.86-.16.57.05.83.14c.26.1.48.24.66.44l-.19.2c-.18-.18-.38-.3-.6-.38-.22-.08-.45-.12-.69-.12-.27,0-.52.05-.75.14-.23.09-.43.22-.6.39s-.3.36-.4.59c-.09.22-.14.47-.14.73s.05.51.14.73c.09.22.23.42.4.59.17.17.37.3.6.39.23.09.48.14.75.14.24,0,.48-.04.69-.12.22-.08.42-.21.6-.39l.19.2c-.18.2-.4.34-.66.44-.26.1-.53.15-.83.15Z"/>
    <path class="cls-2" d="M38.64,67.53v-4.07l.14.14h-1.16v-.28h1.33v4.2h-.31Z"/>
    <path class="cls-2" d="M56.06,67.56c-.31,0-.6-.05-.87-.16-.27-.11-.5-.25-.69-.45-.2-.19-.35-.42-.46-.67-.11-.26-.16-.54-.16-.85s.05-.59.16-.85c.11-.26.26-.48.46-.67.2-.19.43-.34.69-.45s.55-.16.86-.16.57.05.83.14c.26.1.48.24.66.44l-.19.2c-.18-.18-.38-.3-.6-.38-.22-.08-.45-.12-.69-.12-.27,0-.52.05-.75.14-.23.09-.43.22-.6.39s-.3.36-.4.59c-.09.22-.14.47-.14.73s.05.51.14.73c.09.22.23.42.4.59.17.17.37.3.6.39.23.09.48.14.75.14.24,0,.48-.04.69-.12.22-.08.42-.21.6-.39l.19.2c-.18.2-.4.34-.66.44-.26.1-.53.15-.83.15Z"/>
    <path class="cls-2" d="M58.04,67.53v-.22l1.78-1.76c.17-.17.29-.31.38-.44s.14-.24.17-.35c.03-.11.05-.21.05-.32,0-.26-.09-.47-.27-.63-.18-.15-.44-.23-.79-.23-.26,0-.5.04-.69.12-.2.08-.37.2-.51.37l-.22-.19c.16-.18.36-.33.61-.43.25-.1.52-.15.84-.15.28,0,.51.04.72.13.2.09.36.22.47.38.11.17.17.36.17.59,0,.14-.02.27-.06.4-.04.13-.11.27-.2.41s-.24.31-.42.49l-1.67,1.66-.1-.12h2.66v.28h-2.89Z"/>
    <path class="cls-2" d="M80.64,67.56c-.31,0-.6-.05-.87-.16-.27-.11-.5-.25-.69-.45-.2-.19-.35-.42-.46-.67-.11-.26-.16-.54-.16-.85s.05-.59.16-.85c.11-.26.26-.48.46-.67.2-.19.43-.34.69-.45s.55-.16.86-.16.57.05.83.14c.26.1.48.24.66.44l-.19.2c-.18-.18-.38-.3-.6-.38-.22-.08-.45-.12-.69-.12-.27,0-.52.05-.75.14-.23.09-.43.22-.6.39s-.3.36-.4.59c-.09.22-.14.47-.14.73s.05.51.14.73c.09.22.23.42.4.59.17.17.37.3.6.39.23.09.48.14.75.14.24,0,.48-.04.69-.12.22-.08.42-.21.6-.39l.19.2c-.18.2-.4.34-.66.44-.26.1-.53.15-.83.15Z"/>
    <path class="cls-2" d="M83.97,67.56c-.31,0-.6-.05-.86-.16-.27-.1-.47-.24-.62-.41l.16-.23c.13.15.31.27.54.37.23.1.5.15.78.15.38,0,.66-.08.86-.25.2-.17.3-.39.3-.68s-.1-.5-.3-.67c-.2-.17-.51-.25-.93-.25h-.26v-.22l1.34-1.71.04.12h-2.38v-.28h2.63v.22l-1.33,1.71-.13-.1h.13c.5,0,.87.11,1.12.33.25.22.37.51.37.86,0,.23-.05.44-.16.62-.11.18-.27.33-.49.43-.22.1-.49.16-.81.16Z"/>
    <path class="cls-2" d="M102.14,67.56c-.31,0-.6-.05-.87-.16-.27-.11-.5-.25-.69-.45-.2-.19-.35-.42-.46-.67-.11-.26-.16-.54-.16-.85s.05-.59.16-.85c.11-.26.26-.48.46-.67.2-.19.43-.34.69-.45s.55-.16.86-.16.57.05.83.14c.26.1.48.24.66.44l-.19.2c-.18-.18-.38-.3-.6-.38-.22-.08-.45-.12-.69-.12-.27,0-.52.05-.75.14-.23.09-.43.22-.6.39s-.3.36-.4.59c-.09.22-.14.47-.14.73s.05.51.14.73c.09.22.23.42.4.59.17.17.37.3.6.39.23.09.48.14.75.14.24,0,.48-.04.69-.12.22-.08.42-.21.6-.39l.19.2c-.18.2-.4.34-.66.44-.26.1-.53.15-.83.15Z"/>
    <path class="cls-2" d="M103.99,66.36v-.22l2.28-2.81h.34l-2.27,2.81-.17-.05h3.4v.27h-3.58ZM106.38,67.53v-1.43s0-1.03,0-1.03h.29v2.46h-.3Z"/>
    <path class="cls-2" d="M125.58,67.56c-.31,0-.6-.05-.87-.16-.27-.11-.5-.25-.69-.45-.2-.19-.35-.42-.46-.67-.11-.26-.16-.54-.16-.85s.05-.59.16-.85c.11-.26.26-.48.46-.67.2-.19.43-.34.69-.45s.55-.16.86-.16.57.05.83.14c.26.1.48.24.66.44l-.19.2c-.18-.18-.38-.3-.6-.38-.22-.08-.45-.12-.69-.12-.27,0-.52.05-.75.14-.23.09-.43.22-.6.39s-.3.36-.4.59c-.09.22-.14.47-.14.73s.05.51.14.73c.09.22.23.42.4.59.17.17.37.3.6.39.23.09.48.14.75.14.24,0,.48-.04.69-.12.22-.08.42-.21.6-.39l.19.2c-.18.2-.4.34-.66.44-.26.1-.53.15-.83.15Z"/>
    <path class="cls-2" d="M128.94,67.56c-.3,0-.59-.05-.85-.16s-.47-.24-.62-.41l.16-.23c.13.15.31.27.54.37s.49.15.77.15c.39,0,.68-.09.88-.26.2-.18.29-.4.29-.68,0-.2-.05-.37-.14-.52-.09-.14-.25-.26-.47-.33-.22-.08-.52-.12-.9-.12h-.85l.22-2.03h2.23v.28h-2.1l.15-.14-.2,1.78-.14-.16h.76c.43,0,.77.05,1.02.15s.44.25.55.43c.11.18.17.4.17.65,0,.23-.05.44-.16.63s-.27.34-.49.45c-.22.11-.49.16-.82.16Z"/>
    <path class="cls-2" d="M148.58,67.56c-.31,0-.6-.05-.87-.16-.27-.11-.5-.25-.69-.45-.2-.19-.35-.42-.46-.67-.11-.26-.16-.54-.16-.85s.05-.59.16-.85c.11-.26.26-.48.46-.67s.43-.34.69-.45c.26-.11.55-.16.86-.16s.57.05.83.14c.26.1.48.24.66.44l-.19.2c-.18-.18-.38-.3-.6-.38s-.45-.12-.69-.12c-.27,0-.52.05-.75.14-.23.09-.43.22-.6.39s-.3.36-.4.59c-.09.22-.14.47-.14.73s.05.51.14.73c.09.22.23.42.4.59.17.17.37.3.6.39.23.09.48.14.75.14.24,0,.48-.04.69-.12.22-.08.42-.21.6-.39l.19.2c-.18.2-.41.34-.66.44-.26.1-.54.15-.83.15Z"/>
    <path class="cls-2" d="M152.24,67.56c-.37,0-.68-.08-.93-.25s-.44-.41-.57-.73c-.13-.32-.19-.69-.19-1.13,0-.48.08-.87.23-1.19.16-.32.37-.56.65-.72.28-.16.61-.24.98-.24.18,0,.35.02.52.05.16.03.31.09.44.17l-.13.25c-.11-.07-.23-.12-.38-.15-.14-.03-.29-.04-.45-.04-.47,0-.85.15-1.13.46-.28.31-.43.77-.43,1.38,0,.09,0,.21.02.35.01.14.04.28.08.42l-.11-.03c.03-.23.11-.43.23-.59.13-.16.29-.29.49-.38.2-.09.42-.13.66-.13.28,0,.53.05.74.15s.37.25.49.44c.12.19.18.41.18.66s-.06.48-.18.67c-.12.19-.29.34-.5.44s-.45.16-.72.16ZM152.23,67.29c.22,0,.41-.04.58-.12s.29-.2.39-.35.14-.32.14-.52c0-.3-.1-.54-.3-.72-.2-.18-.48-.27-.84-.27-.23,0-.43.04-.61.13-.18.09-.31.21-.41.36-.1.15-.15.32-.15.51,0,.16.05.32.14.47.09.15.23.27.4.37.18.1.4.14.66.14Z"/>
    <path class="cls-2" d="M170.22,67.56c-.31,0-.6-.05-.87-.16-.27-.11-.5-.25-.69-.45-.2-.19-.35-.42-.46-.67-.11-.26-.16-.54-.16-.85s.05-.59.16-.85c.11-.26.26-.48.46-.67s.43-.34.69-.45c.26-.11.55-.16.86-.16s.57.05.83.14c.26.1.48.24.66.44l-.19.2c-.18-.18-.38-.3-.6-.38s-.45-.12-.69-.12c-.27,0-.52.05-.75.14-.23.09-.43.22-.6.39s-.3.36-.4.59c-.09.22-.14.47-.14.73s.05.51.14.73c.09.22.23.42.4.59.17.17.37.3.6.39.23.09.48.14.75.14.24,0,.48-.04.69-.12.22-.08.42-.21.6-.39l.19.2c-.18.2-.41.34-.66.44-.26.1-.54.15-.83.15Z"/>
    <path class="cls-2" d="M174.18,64.37c.26,0,.48.05.67.15.19.1.34.25.44.44.11.2.16.44.16.73v1.83h-.3v-1.81c0-.35-.09-.62-.27-.8s-.43-.28-.75-.28c-.24,0-.46.05-.64.15-.18.1-.32.24-.41.42-.09.18-.14.4-.14.65v1.67h-.3v-4.45h.3v2.19l-.05-.1c.1-.25.25-.44.47-.58.22-.14.49-.21.81-.21Z"/>
    <path class="cls-2" d="M191.46,67.53v-3.92h-1.51v-.28h3.33v.28h-1.51v3.92h-.31Z"/>
    <path class="cls-2" d="M195.13,67.55c-.27,0-.5-.05-.7-.15-.2-.1-.35-.25-.45-.44-.11-.2-.16-.44-.16-.73v-1.83h.3v1.81c0,.35.09.62.27.8s.43.28.76.28c.24,0,.44-.05.61-.15s.3-.24.4-.42c.09-.18.14-.4.14-.65v-1.67h.3v3.13h-.29v-.87l.04.1c-.09.24-.25.44-.46.58s-.47.21-.76.21Z"/>
  </g>
  <g>
    <path class="cls-2" d="M33.7,59.96v-4.2h.8l1.79,2.96h-.43l1.76-2.96h.8v4.2s-.9,0-.9,0v-2.8s.16,0,.16,0l-1.4,2.36h-.44l-1.43-2.36h.2v2.8h-.91Z"/>
    <path class="cls-2" d="M59.22,56.68c.26,0,.48.05.68.15.2.1.35.26.47.47.11.21.17.48.17.81v1.85h-.94v-1.7c0-.26-.05-.45-.16-.58s-.26-.19-.46-.19c-.14,0-.26.03-.37.09-.11.06-.19.16-.25.28-.06.12-.09.28-.09.47v1.62h-.94v-1.7c0-.26-.05-.45-.16-.58s-.26-.19-.45-.19c-.14,0-.26.03-.37.09s-.19.16-.25.28c-.06.12-.09.28-.09.47v1.62h-.94v-3.23h.89v.88l-.17-.26c.11-.22.27-.39.48-.5.21-.11.44-.17.71-.17.3,0,.56.07.78.23.22.15.37.38.44.69l-.33-.09c.11-.25.28-.45.52-.6.24-.15.51-.22.82-.22Z"/>
    <path class="cls-2" d="M79.06,56.68c.26,0,.48.05.69.15.2.1.36.26.48.47.12.21.17.48.17.81v1.85h-.94v-1.7c0-.26-.06-.45-.17-.58s-.27-.19-.48-.19c-.15,0-.28.03-.4.09-.12.06-.21.16-.28.29-.07.13-.1.29-.1.49v1.6h-.94v-4.45h.94v2.12l-.21-.27c.12-.22.28-.38.5-.5.22-.12.46-.17.74-.17Z"/>
    <path class="cls-2" d="M85.38,56.68c.26,0,.48.05.68.15.2.1.35.26.47.47.11.21.17.48.17.81v1.85h-.94v-1.7c0-.26-.05-.45-.16-.58s-.26-.19-.46-.19c-.14,0-.26.03-.37.09-.11.06-.19.16-.25.28-.06.12-.09.28-.09.47v1.62h-.94v-1.7c0-.26-.05-.45-.16-.58s-.26-.19-.45-.19c-.14,0-.26.03-.37.09s-.19.16-.25.28c-.06.12-.09.28-.09.47v1.62h-.94v-3.23h.89v.88l-.17-.26c.11-.22.27-.39.48-.5.21-.11.44-.17.71-.17.3,0,.56.07.78.23.22.15.37.38.44.69l-.33-.09c.11-.25.28-.45.52-.6.24-.15.51-.22.82-.22Z"/>
    <path class="cls-2" d="M100.18,59.96v-4.2h.8l1.79,2.96h-.43l1.76-2.96h.8v4.2s-.9,0-.9,0v-2.8s.16,0,.16,0l-1.4,2.36h-.44l-1.43-2.36h.2v2.8h-.91Z"/>
    <path class="cls-2" d="M107.07,60.03c-.29,0-.58-.04-.87-.12s-.53-.19-.73-.33l.38-.74c.16.12.35.21.56.28.21.07.42.1.64.1.24,0,.44-.05.58-.14.14-.1.21-.23.21-.4,0-.11-.03-.2-.08-.29-.06-.08-.15-.15-.3-.19s-.34-.07-.6-.07h-1.07l.22-2.36h2.56v.78h-2.21l.5-.44-.15,1.69-.5-.44h.89c.42,0,.75.06,1.01.17.25.11.44.27.55.47.12.2.17.42.17.67s-.06.48-.19.69c-.12.21-.31.38-.57.51-.26.13-.59.19-.99.19Z"/>
    <path class="cls-2" d="M126.12,56.68c.26,0,.48.05.68.15.2.1.35.26.47.47.11.21.17.48.17.81v1.85h-.94v-1.7c0-.26-.05-.45-.16-.58s-.26-.19-.46-.19c-.14,0-.26.03-.37.09-.11.06-.19.16-.25.28-.06.12-.09.28-.09.47v1.62h-.94v-1.7c0-.26-.05-.45-.16-.58s-.26-.19-.45-.19c-.14,0-.26.03-.37.09s-.19.16-.25.28c-.06.12-.09.28-.09.47v1.62h-.94v-3.23h.89v.88l-.17-.26c.11-.22.27-.39.48-.5.21-.11.44-.17.71-.17.3,0,.56.07.78.23.22.15.37.38.44.69l-.33-.09c.11-.25.28-.45.52-.6.24-.15.51-.22.82-.22Z"/>
    <path class="cls-2" d="M129.51,60.03c-.29,0-.58-.04-.87-.12s-.53-.19-.73-.33l.38-.74c.16.12.35.21.56.28.21.07.42.1.64.1.24,0,.44-.05.58-.14.14-.1.21-.23.21-.4,0-.11-.03-.2-.08-.29-.06-.08-.15-.15-.3-.19s-.34-.07-.6-.07h-1.07l.22-2.36h2.56v.78h-2.21l.5-.44-.15,1.69-.5-.44h.89c.42,0,.75.06,1.01.17.25.11.44.27.56.47.12.2.17.42.17.67s-.06.48-.19.69c-.12.21-.32.38-.57.51-.26.13-.59.19-.99.19Z"/>
    <path class="cls-2" d="M147.64,59.96v-4.2h1.91c.46,0,.86.09,1.21.26.35.17.62.42.82.73.2.31.29.68.29,1.11s-.1.79-.29,1.11c-.2.31-.47.56-.82.73s-.75.26-1.21.26h-1.91ZM148.61,59.16h.89c.28,0,.52-.05.73-.16s.37-.26.48-.45c.11-.2.17-.43.17-.69s-.06-.5-.17-.69c-.11-.19-.27-.34-.48-.45s-.45-.16-.73-.16h-.89v2.6Z"/>
    <path class="cls-2" d="M168.31,59.96v-4.2h.8l1.79,2.96h-.43l1.76-2.96h.8v4.2s-.9,0-.9,0v-2.8s.16,0,.16,0l-1.4,2.36h-.44l-1.43-2.36h.2v2.8h-.91Z"/>
    <path class="cls-2" d="M173.57,59.96l1.45-1.9-.02.52-1.39-1.85h1.05l.88,1.21h-.4s.91-1.21.91-1.21h1l-1.39,1.83v-.5l1.44,1.9h-1.06l-.92-1.28.39.05-.91,1.23h-1.02Z"/>
    <path class="cls-2" d="M190.19,59.96v-4.2h2.05c.53,0,.92.1,1.19.3.27.2.4.46.4.79,0,.22-.05.41-.16.57-.11.16-.26.29-.44.38-.19.09-.4.13-.65.13l.11-.25c.26,0,.5.04.7.13s.36.21.48.38c.11.17.17.37.17.62,0,.36-.14.64-.43.84-.28.2-.7.3-1.25.3h-2.17ZM191.15,59.22h1.13c.25,0,.44-.04.57-.12s.2-.21.2-.39-.07-.31-.2-.39-.32-.13-.57-.13h-1.21v-.71h1.04c.24,0,.42-.04.54-.12s.19-.21.19-.38-.06-.29-.19-.37c-.13-.08-.31-.12-.54-.12h-.97v2.74Z"/>
    <path class="cls-2" d="M196.67,56.68c.26,0,.49.05.69.15s.36.26.48.47c.12.21.17.48.17.81v1.85h-.94v-1.7c0-.26-.06-.45-.17-.58s-.28-.19-.48-.19c-.15,0-.28.03-.4.09s-.21.16-.28.29c-.07.13-.1.29-.1.49v1.6h-.94v-4.45h.94v2.12l-.21-.27c.12-.22.28-.38.5-.5.22-.12.46-.17.74-.17Z"/>
  </g>
</svg>